<?xml version="1.0" standalone="no"?>
<!DOCTYPE svg PUBLIC "-//W3C//DTD SVG 1.1//EN" "http://www.w3.org/Graphics/SVG/1.1/DTD/svg11.dtd" >
<svg xmlns="http://www.w3.org/2000/svg">
<metadata></metadata>
<defs>
<font id="geared_slabextrabold" horiz-adv-x="894" >
<font-face units-per-em="2048" ascent="1536" descent="-512" />
<missing-glyph horiz-adv-x="512" />
<glyph unicode="&#xfb01;" horiz-adv-x="1110" d="M43 768v139q0 59 35 90t94 31v313q0 126 120 173q109 44 269 6q19 -6 19 -33v-203q0 -18 -7.5 -21t-11.5 -1q-41 16 -73.5 1.5t-32.5 -59.5v-176h125v-108q0 -61 -31 -107.5t-94 -46.5v-490q3 -27 20.5 -37.5t33 -43.5t15.5 -74v-119h-422v119q0 41 15.5 73.5t28.5 41.5 q23 16 26 36v496h-129zM630 0v143q0 65 47 97q20 15 23 34v465q-2 23 -21 35q-49 32 -49 92v158h308q47 0 47 -39v-704q0 -28 18 -41q49 -34 49 -99v-141h-422zM675 1290q0 59 42 102.5t102 43.5q59 0 102 -43t43 -103q0 -59 -43 -101t-102 -42t-101.5 42t-42.5 101z" />
<glyph unicode="&#xfb02;" horiz-adv-x="1103" d="M43 768v139q0 59 35 90t94 31v313q0 126 120 173q109 44 269 6q19 -6 19 -33v-203q0 -18 -7.5 -21t-11.5 -1q-41 16 -73.5 1.5t-32.5 -59.5v-176h125v-108q0 -61 -31 -107.5t-94 -46.5v-490q3 -27 20.5 -37.5t33 -43.5t15.5 -74v-119h-422v119q0 41 15.5 73.5t28.5 41.5 q23 16 26 36v496h-129zM626 0v139q0 59 47 97q20 10 23 32v987q-3 23 -21 36q-49 35 -49 93v150h299q23 0 37.5 -16.5t14.5 -34.5v-371l2 -836q0 -31 18 -43q49 -33 49 -96v-137h-420z" />
<glyph horiz-adv-x="2048" />
<glyph horiz-adv-x="2048" />
<glyph unicode="&#xd;" horiz-adv-x="512" />
<glyph unicode=" "  horiz-adv-x="512" />
<glyph unicode="&#x09;" horiz-adv-x="512" />
<glyph unicode="&#xa0;" horiz-adv-x="512" />
<glyph unicode="!" horiz-adv-x="493" d="M92 1466q0 68 47 68h221q47 0 46 -51l-31 -1037q-4 -43 -37 -43h-176q-37 0 -38 40t-4 130.5t-6 201t-7.5 228t-7.5 217.5q-7 232 -7 246zM113 12v191q0 28 147 28q45 0 85 -7t40 -17v-191q0 -32 -125 -32q-96 0 -121.5 11t-25.5 17z" />
<glyph unicode="&#x22;" horiz-adv-x="743" d="M78 1516q0 23 38 26.5t85 3.5q131 0 131 -26l-21 -234q0 -31 -106 -31t-107 29v2zM414 1516q0 23 37 26.5t84 3.5q131 0 131 -26l-21 -234q0 -31 -105.5 -31t-105.5 29v2z" />
<glyph unicode="#" horiz-adv-x="1462" d="M57 319v205q0 10 11 11h305q8 0 12 10l33 149q4 10 -8 11h-265q-10 0 -10 10v207q0 10 10 10h308q8 0 12 8l65 270q4 10 13 11h207q8 0 8 -11l-66 -270q-4 -8 6 -8h150q10 0 14 8l66 270q0 10 12 11h205q12 0 8 -11l-66 -270q-4 -8 9 -8h299q10 0 10 -10v-207 q0 -10 -10 -10h-344q-8 0 -13 -11l-30 -149q-4 -10 8 -10h299q10 0 10 -11v-205q0 -10 -10 -10h-342q-12 0 -12 -10l-68 -287q-4 -10 -14 -10h-205q-12 0 -8 10l67 287q4 10 -6 10h-172q-8 0 -12 -10l-74 -287q-4 -10 -12 -10h-207q-10 0 -6 10l73 287q0 10 -8 10h-241 q-10 0 -11 10zM610 545q0 -10 8 -10h144q12 0 12 10l35 149q0 10 -8 11h-144q-12 0 -12 -11z" />
<glyph unicode="$" horiz-adv-x="942" d="M57 291v194h162q55 0 83 -33.5t28 -80.5v-62q0 -33 44 -57.5t84 -24.5t64.5 8.5t43.5 21.5q42 28 42 58v160q0 68 -39 112t-98 77.5t-128 64.5t-128 75q-137 102 -137 265v172q0 154 120 237q106 72 273 72q159 0 273 -76q120 -82 120 -233v-192h-153q-51 0 -86 30.5 t-35 79.5v64q0 43 -40 66.5t-82 23.5t-78 -24.5t-36 -55.5v-160q0 -41 39 -74.5t98.5 -67.5t128 -71t128.5 -84q137 -109 137 -250v-235q0 -147 -133 -233q-113 -74 -281 -74q-170 0 -283 74q-131 85 -131 233zM408 55h114v-166h-114v166zM408 1468v166h114v-166h-114z" />
<glyph unicode="%" horiz-adv-x="1339" d="M57 1128v117q6 145 67 220t202.5 75t209.5 -83.5t68 -205.5v-123q-2 -131 -64.5 -211.5t-206.5 -80.5t-204.5 75.5t-71.5 216.5zM272 1120q0 -100 37 -111q10 -3 21 -3q30 0 40 12q19 25 19 108v121q0 110 -40 114q-11 1 -19 1q-27 0 -36 -12q-22 -28 -22 -95v-135z M287 2l512 1530q0 4 6 4h239q4 0 5 -4l-510 -1530q-4 -4 -9 -4h-239q-4 0 -4 4zM735 281v116q6 145 67 221t203 76t209.5 -85t67.5 -206v-122q-2 -131 -64.5 -212t-206.5 -81t-205 75.5t-71 217.5zM950 272q0 -103 37 -110q10 -2 21 -2q30 0 40 11q19 23 19 110v118 q0 110 -40 114q-11 1 -19 1q-27 0 -36 -11q-22 -27 -22 -95v-136z" />
<glyph unicode="&#x26;" horiz-adv-x="1153" d="M125 317v236q0 182 117 233q-86 33 -107 190q-6 44 -6 87v162q0 151 117 244q110 87 248.5 87t230.5 -49q10 -4 16.5 -20.5t-10.5 -32.5l-135 -135q-14 -14 -30 -14h-52q-57 0 -88 -45q-12 -17 -12 -43v-181q0 -72 19.5 -100.5t84.5 -28.5h94v4q0 67 48 101q20 14 55 14 h180v-119h102q10 0 15 -5q12 -14 12 -21v-205q0 -14 -10 -21.5t-21 -7.5h-98v-346q0 -41 38 -60.5t91 -15.5q6 0 16.5 1t19.5 -2q21 -7 21 -42v-104q0 -39 -6 -52.5t-37 -25.5q-193 -40 -319 35q-90 -49 -185.5 -49t-166 22.5t-123.5 64.5q-119 93 -119 244zM410 326 q0 -52 40 -86q29 -23 64 -23q98 0 98 102v328h-98q-62 0 -77 -10q-27 -18 -27 -84v-227z" />
<glyph unicode="'" horiz-adv-x="366" d="M57 1522q0 23 37 26.5t84 3.5q131 0 131 -26l-20 -234q0 -31 -105.5 -30.5t-105.5 28.5v2z" />
<glyph unicode="(" horiz-adv-x="647" d="M57 -33v1600q0 266 287 266h240q6 0 6 -4v-256q0 -6 -6 -6h-209q-31 0 -31 -25v-1544q0 -16 11.5 -23.5t21.5 -7.5h207q6 0 6 -6v-242q0 -4 -6 -4h-240q-133 0 -210 73t-77 179z" />
<glyph unicode=")" horiz-adv-x="647" d="M57 -37q0 6 6 6h209q31 0 31 25v1542q0 31 -33 31h-207q-6 0 -6 6v256q0 4 6 4h240q133 0 210 -72.5t77 -179.5v-1599q0 -119 -65.5 -193t-221.5 -74h-240q-6 0 -6 4v244z" />
<glyph unicode="*" horiz-adv-x="526" d="M59 1337l54 142q4 4 8 2l61 -23q6 -4 6 2l5 66q0 6 6 6h143q6 0 6 -6l2 -68q0 -4 6 -4l68 16q4 2 8 -4l37 -145q0 -6 -6 -8l-64 -17q-8 0 -4 -6l43 -63q2 -4 -2 -8l-127 -82q-4 -4 -8 0l-31 47q-4 6 -6 0l-31 -49q-4 -6 -8 -2l-129 79q-4 4 0 9l45 71q2 4 -2 8l-78 29 q-4 4 -2 8z" />
<glyph unicode="+" horiz-adv-x="716" d="M57 516v195q0 6 6 6h187q6 0 6 6v186q0 6 6 6h195q4 0 4 -6v-186q0 -6 6 -6h188q4 0 4 -6v-195q0 -4 -4 -4h-188q-6 0 -6 -6v-189q0 -4 -4 -4h-195q-6 0 -6 4v189q0 6 -6 6h-187q-6 0 -6 4z" />
<glyph unicode="," horiz-adv-x="366" d="M57 14v187q0 28 129 28q123 0 123 -26v-228q0 -65 -15 -95q-20 -40 -60.5 -79.5t-48 -36.5t-21.5 14t-13 18t26.5 33t37.5 55.5t9 51.5q-7 50 -58 50q-109 0 -109 28z" />
<glyph unicode="-" horiz-adv-x="501" d="M57 518v195q0 6 4 6h379q4 0 4 -6v-195q0 -6 -4 -6h-379q-4 0 -4 6z" />
<glyph unicode="." horiz-adv-x="374" d="M57 14v191q0 33 129 33q49 0 90 -8.5t41 -20.5v-193q0 -16 -40.5 -25t-90.5 -9q-129 0 -129 32z" />
<glyph unicode="/" horiz-adv-x="645" d="M37 4l315 1526q4 4 8 4h226q4 0 4 -4l-316 -1526q0 -4 -6 -4h-227q-4 0 -4 4z" />
<glyph unicode="0" horiz-adv-x="964" d="M82 313v910q0 158 105.5 243.5t299 85.5t295 -86t101.5 -243v-910q0 -158 -102.5 -242.5t-294 -84.5t-298 85t-106.5 242zM360 338q0 -69 52 -98q33 -17 73 -17q69 0 105 57q16 25 16 66v852q0 71 -48 100q-29 17 -73 17q-75 0 -109 -53q-16 -23 -16 -64v-860z" />
<glyph unicode="1" horiz-adv-x="641" d="M63 1323v39q156 10 195 115q3 10 31 26q52 31 82 31h139v-1249q0 -16 22 -30q52 -34 52 -97v-158h-408v158q0 47 45 92q18 18 19 35v821q0 20 -22 20q-63 0 -95 19q-23 10 -41.5 57t-18.5 121z" />
<glyph unicode="2" horiz-adv-x="874" d="M57 1184v39q0 149 111 243q104 88 260 88t268 -88q119 -94 119 -243v-213q0 -167 -173 -306q-48 -38 -105.5 -79t-98.5 -72t-66 -55q-42 -40 -42 -95v-84q0 -27 20.5 -40t42.5 -13h182q20 0 27 19q10 20 40 44.5t77 24.5h98v-301q0 -32 -17.5 -42.5t-35.5 -10.5h-576 q-50 0 -92 39q-37 33 -37 74v354q0 118 77 189q36 34 82 63l190 119q122 76 122 182v172q0 37 -17 66.5t-71.5 29.5t-75 -8t-30.5 -22q-17 -22 -17 -66v-117h-126q-72 0 -104 26.5t-32 82.5z" />
<glyph unicode="3" horiz-adv-x="884" d="M57 301v152h181q59 0 86 -47q16 -30 16 -68v-25q0 -102 98 -102q57 0 92 57q13 21 13 51v228q0 65 -26 83q-16 11 -79 11h-131q-31 0 -31 29v204q0 6 4.5 11.5t8.5 10.5t14 5h131q66 0 85.5 28.5t19.5 100.5v180q0 46 -43 72q-27 16 -45.5 16t-35 -3t-33.5 -12 q-42 -22 -42 -71v-2q0 -112 -96 -112h-187v145q8 140 122 227q106 80 259 80q158 0 268 -87q117 -91 117 -244v-162q0 -153 -60 -236q-21 -29 -52 -41q116 -53 116 -233v-236q0 -151 -119 -244q-110 -87 -270 -87q-157 0 -263 84q-114 92 -118 237z" />
<glyph unicode="4" horiz-adv-x="974" d="M61 399v131q0 16 8.5 41t41 102t75.5 175t90.5 204.5t87 197.5t68.5 154.5t39 89.5q15 40 80 40h186q23 0 39.5 -8t16.5 -37v-871q0 -12 10 -16q63 0 95 -52q13 -22 13 -58v-146h-108q-10 0 -10 -20v-39q0 -32 20 -46q49 -36 49 -98v-143h-411v143q0 64 45 93 q16 10 22 49v49q0 12 -12 12h-397q-20 0 -34 12.5t-14 40.5zM322 614q-4 -12 8 -12h174q14 0 14 14v410q-5 13 -12 5q-13 -16 -62.5 -132.5t-65.5 -153t-28 -65.5t-28 -66z" />
<glyph unicode="5" horiz-adv-x="901" d="M61 309v45l7 131h55l117 -2q62 -3 92 -49q20 -32 20 -69v-19q0 -94 97 -94q43 0 73.5 17.5t30.5 52.5v368q0 66 -96 66q-31 0 -64 -10.5t-33 -34.5v-11h-145q-81 0 -119 48q-16 22 -15 53t3 82t5 113.5t6 130t6 127.5q7 143 9.5 177.5t28 67.5t70.5 33h522q80 0 80 -78 v-283h-88q-43 0 -87 19.5t-52 33.5q-17 31 -49 31h-134q-23 0 -23.5 -8t-1.5 -33t-14 -194q0 -16 13.5 -21.5t32.5 4.5q42 23 137.5 23t146.5 -24.5t84 -67.5q64 -83 64 -219v-406q0 -149 -118 -243q-112 -89 -269 -89q-159 0 -271 89q-121 95 -121 243z" />
<glyph unicode="6" horiz-adv-x="907" d="M61 293v928q0 151 121 244q112 87 271 87q160 0 270 -87q119 -94 119 -244v-123h-185q-60 0 -89 46q-17 29 -17 62v6q0 25 -19.5 49.5t-75.5 24.5t-80 -22.5t-24 -51.5v-272q0 -16 13.5 -9t36 12t48 8t50.5 3h41q143 0 224 -93t81 -253v-295q0 -151 -120 -244 q-112 -87 -271 -87q-161 0 -273 76q-121 83 -121 235zM346 324q0 -71 42 -96q25 -15 67 -15q108 0 108 111v276q0 119 -108 119q-109 0 -109 -119v-276z" />
<glyph unicode="7" horiz-adv-x="942" d="M61 1241v195q0 96 127 96h643q20 0 35 -12.5t15 -34.5v-281q0 -30 -15 -45q-160 -285 -199.5 -405.5t-51 -222t-10.5 -179t8.5 -86t20.5 -17.5t27.5 -52t14.5 -80v-117h-438v117q0 53 19 90t28 43q14 12 20 24l2 58l2 28q8 250 49 389.5t91.5 249t125.5 248.5 q4 10 -6 13.5t-14 3.5h-160q-23 0 -37 -13.5t-14 -36.5v-88h-172q-87 0 -106 86q-5 19 -5 29z" />
<glyph unicode="8" horiz-adv-x="899" d="M61 315v228q0 164 107 237q6 4 6 18.5t-6 20.5q-98 80 -98 209v195q0 150 114 243q107 88 267 88q159 0 265 -88q115 -95 115 -243v-195q0 -141 -86 -211q-6 -6 -6 -18.5t6 -16.5q95 -61 95 -239v-228q0 -153 -117 -246q-107 -85 -272 -85q-166 0 -273 85 q-117 93 -117 246zM346 414q0 -82 23.5 -123t81.5 -41q104 0 104 164v55q0 82 -24.5 120t-80.5 38t-80 -38t-24 -120v-55zM348 1108q0 -82 22.5 -123t79 -41t80 41t23.5 123v16q0 82 -23.5 120t-79.5 38t-79 -38t-23 -120v-16z" />
<glyph unicode="9" d="M61 920v297q0 149 118 243q111 88 270 88q160 0 268 -88q117 -95 117 -243v-908q0 -152 -116 -245q-110 -87 -267 -87q-154 0 -261 80q-116 86 -120 226v14q-2 4 -2 12v119h174q57 0 90 -48q20 -30 20 -57.5t11.5 -41t26.5 -21.5q31 -16 61 -16q59 0 87 34q11 15 11 39 v287q0 10 -14.5 8t-26.5 -7t-33.5 -9t-43 -5t-41 -2t-28.5 -1q-143 0 -222 86t-79 246zM346 958q0 -106 101.5 -106t101.5 106v199q0 74 -32 96.5t-69.5 22.5t-69.5 -23.5t-32 -95.5v-199z" />
<glyph unicode=":" horiz-adv-x="389" d="M57 240v192q0 31 134.5 31t134.5 -29v-190q0 -16 -42 -25.5t-91 -9.5q-136 0 -136 31zM63 801v190q0 23 38 28t85 5q146 0 146 -29v-190q0 -31 -134.5 -31t-134.5 27z" />
<glyph unicode=";" horiz-adv-x="374" d="M57 801v190q0 33 130 33t130 -29v-190q0 -16 -37.5 -25.5t-86.5 -9.5q-136 0 -136 31zM66 248v186q0 29 125.5 29t125.5 -27v-229q0 -67 -15 -95q-20 -37 -85 -102q-18 -16 -24.5 -13t-20.5 14t-13 18.5t26.5 33t38 55t8.5 50.5q-11 49 -60 49q-106 0 -106 31z" />
<glyph unicode="&#x3c;" horiz-adv-x="684" d="M57 616h2l2 5l418 417q4 4 8 0l138 -137q4 -4 0 -8l-273 -272q-2 -6 0 -9l273 -274q4 -4 0 -8l-138 -137q-4 -4 -8 0z" />
<glyph unicode="=" horiz-adv-x="718" d="M57 379v194q0 4 6 5h592q6 0 7 -5v-194q0 -6 -7 -6h-592q-6 0 -6 6zM57 659v195q0 6 6 6h592q6 0 7 -6v-195q0 -4 -7 -4h-592q-6 0 -6 4z" />
<glyph unicode="&#x3e;" horiz-adv-x="684" d="M59 328q-4 4 0 8l273 274q2 2 0 8l-273 273q-4 4 0 8l138 137q4 4 8 0l418 -418q0 -2 2 -4h2l-2 -2q0 -2 -1 -2t-1 -2l-418 -418q-4 -4 -8 0z" />
<glyph unicode="?" horiz-adv-x="825" d="M57 1198v57q0 133 101 211q95 74 250 74q153 0 250 -78q104 -83 104 -233v-234q0 -78 -40 -130t-89 -94t-89 -80t-40 -85v-241q0 -23 -10.5 -33t-20.5 -10h-194q-39 0 -39 43v284q0 68 41 115t90 87t90 76t41 79v211q0 50 -40 71q-24 12 -54 12q-53 0 -82 -38 q-12 -16 -13 -45v-130h-118q-72 0 -105 34t-33 77zM240 29v176q0 28 131 28q83 0 110 -10t27 -16v-174q0 -33 -134 -33t-134 29z" />
<glyph unicode="@" horiz-adv-x="1488" d="M63 543q0 357 223 577q212 211 539 211q446 0 570 -297q43 -102 43 -241.5t-27 -230.5t-66.5 -150.5t-86 -91t-87.5 -46.5q-52 -20 -113 -20t-114 12.5t-88 59.5q-65 -75 -211 -64q-150 13 -218 112q-72 106 -28.5 286t125.5 254.5t207 78.5q116 5 199 -47q30 52 90 51 h156v-67q0 -58 -46 -90q-18 -10 -20 -29l-86 -328q-4 -27 17.5 -41t65.5 -14t79 33t50 85q21 73 21 215t-30.5 215t-90.5 119q-112 87 -337 87q-232 0 -404 -185q-78 -84 -123 -197.5t-45 -236.5t31 -206t86 -136q104 -100 295 -100q138 0 258 41q28 8 33 -17q2 -10 7 -40.5 t9 -52.5q6 -30 -19 -41q-111 -50 -256.5 -50t-258.5 32t-190 101q-159 144 -159 449zM593.5 493.5q18.5 -55.5 111.5 -61.5q69 -3 100 25q14 12 18 28l82 297q-49 63 -130 51t-111.5 -57t-59.5 -136t-10.5 -146.5z" />
<glyph unicode="A" horiz-adv-x="1075" d="M47 0v143q0 58 45 90q25 20 31 46q57 272 90.5 426.5t52.5 242.5t34 158t24.5 113t11.5 52t2 22.5t-10 17.5q-52 23 -52 104v117h318q47 0 74.5 -28.5t30.5 -50t14.5 -76t30.5 -137.5q48 -216 93 -431t115 -530q6 -28 26 -42q50 -34 50 -94v-143h-410v119q0 37 14.5 67.5 t27.5 39.5q28 18 27 39t-3 34.5t-5 27t-6 26.5q-6 24 -40 24h-193q-18 0 -25 -3t-10.5 -18.5t-5.5 -29t-6 -26.5t-5 -30q-2 -27 16 -40t32.5 -44.5t14.5 -68.5v-117h-404zM440 631q-1 -4 -1 -7q0 -6 3 -8q4 -4 19 -4h149q14 0 18 3q3 2 4 9q0 3 -1 7l-88 508q0 7 -4 7h-1 q-6 -1 -8 -5z" />
<glyph unicode="B" horiz-adv-x="1005" d="M57 0v127q0 75 43 96q27 11 27 45v994q0 33 -23 43q-47 21 -47 102v125h494q174 0 260 -91t86 -243v-172q0 -155 -61 -211q-19 -19 4 -33q78 -55 78 -229v-223q0 -152 -86.5 -241t-260.5 -89h-514zM408 268q0 -12 8 -23.5t20 -11.5h101q96 0 96 129v173q0 155 -96 155 h-93q-16 0 -26 -10t-10 -25v-387zM408 961q0 -29 12 -36t35 -10h51q47 0 76.5 29t29.5 82v133q0 131 -110 131h-47q-29 0 -38 -8t-9 -35v-286z" />
<glyph unicode="C" horiz-adv-x="983" d="M88 297v950q0 148 127 233q114 76 279 76t277 -76q124 -84 124 -233v-151h-154q-51 0 -85.5 30.5t-34.5 79.5v2q0 111 -129 111q-68 0 -103 -35q-24 -24 -24 -65v-897q0 -29 36.5 -59t90.5 -30q53 0 92 25t39 57v21q0 47 27.5 81t82.5 34h162v-154q0 -148 -126 -233 q-111 -74 -277 -74q-167 0 -278 74q-126 85 -126 233z" />
<glyph unicode="D" horiz-adv-x="1007" d="M57 -2v123q0 81 43 102q25 14 25 43v991q0 33 -34 52t-34 90v131h527q160 0 248 -90t88 -244v-864q0 -154 -88.5 -244t-247.5 -90h-527zM408 262q0 -25 22 -29h82q66 0 96.5 20.5t30.5 68.5v837q0 129 -111 129h-92q-23 -2 -25.5 -14t-2.5 -25v-987z" />
<glyph unicode="E" horiz-adv-x="927" d="M57 0v123q0 79 45 102q25 14 25 43v996q0 33 -23 45q-47 24 -47 96v129h734q25 0 42 -18.5t17 -34.5v-271h-121q-41 0 -65.5 20.5t-36.5 42.5t-41 21h-154q-10 0 -19.5 -9t-9.5 -19v-340q0 -29 31 -29h258q33 0 33 -31v-164q0 -29 -31 -28h-260q-31 0 -31 -27v-383 q0 -12 10.5 -20t22.5 -8h164q18 0 25.5 15t13.5 29.5t17 26.5q30 31 67 31h127v-287q0 -23 -22.5 -37t-45.5 -14h-725z" />
<glyph unicode="F" horiz-adv-x="901" d="M57 2v129q0 55 49 92q18 14 21 35v1006q0 33 -23 43q-47 21 -47 102v123h734q16 0 34.5 -16.5t18.5 -40.5v-269h-88q-43 0 -77 20.5t-42 35.5q-17 30 -49 30h-148q-14 0 -24 -9t-10 -21v-342q0 -31 36 -31h248q16 0 22.5 -24.5t6.5 -39.5v-129q0 -29 -27 -28h-256 q-10 0 -20 -8.5t-10 -22.5v-369q0 -32 22 -45q47 -35 47 -92v-129h-418z" />
<glyph unicode="G" horiz-adv-x="993" d="M88 295v950q0 309 399 309q190 0 304 -76.5t114 -232.5v-139h-184q-57 0 -82 21.5t-25 70.5v2q0 57 -35.5 87t-91.5 30q-122 0 -122 -123v-815q0 -82 37.5 -117t94 -35t94.5 36t38 108v168q0 33 -35 55q-37 20 -37 133v74h285q63 0 63 -70v-713q0 -20 -22 -20h-62 q-18 0 -22 14q-20 33 -55 33q-20 0 -46 -12q-82 -45 -187.5 -45t-178 18.5t-126.5 55.5q-118 82 -118 233z" />
<glyph unicode="H" horiz-adv-x="1085" d="M57 0v129q0 55 49 92q21 13 21 45h2v1000h-2q0 30 -19 43q-51 38 -51 94v129h422v-129q0 -55 -49 -92q-20 -16 -20 -45v-318q0 -28 30 -28h209q29 0 29 28v318q0 30 -18 43q-52 38 -52 94v129h420v-129q0 -55 -49 -92q-21 -21 -21 -45v-1000q0 -29 18 -43q52 -39 52 -94 v-129h-420v129q0 55 49 92q21 13 21 45v383q0 29 -31 29h-209q-29 0 -28 -29v-383q0 -33 18 -45q51 -34 51 -92v-129h-422z" />
<glyph unicode="I" horiz-adv-x="534" d="M57 0v129q0 55 49 92q21 13 21 45v1000q0 30 -19 43q-51 38 -51 94v129h420v-129q0 -55 -49 -92q-20 -20 -20 -45v-1000q0 -30 18 -44q51 -38 51 -93v-129h-420z" />
<glyph unicode="J" horiz-adv-x="974" d="M57 315v138h168q64 0 93 -41q20 -28 20 -78.5t32.5 -79.5t78.5 -29q45 0 81.5 29t36.5 88v924q0 29 -18 43q-51 40 -51 94v129h420v-129q0 -57 -50 -92q-17 -13 -20 -39v-957q0 -149 -124 -242q-113 -85 -275 -85q-163 0 -272 85q-120 93 -120 242z" />
<glyph unicode="K" horiz-adv-x="1081" d="M57 0v129q0 55 49 92q21 17 21 45v1000q0 34 -21 45q-49 37 -49 92v129h416v-129q0 -55 -49 -92q-21 -16 -21 -45v-285l277 496q47 55 100 55h174v-129q0 -84 -45 -103q-47 -21 -55 -40q-4 -8 -33.5 -59.5t-65.5 -116.5q-118 -210 -118 -224q0 -5 6 -29l217 -524 q23 -54 90 -69q15 -3 31.5 -10t29.5 -22.5t13 -62.5v-143h-227q-51 0 -76 19.5t-53 82.5l-207 488l-58 -105v-219q0 -24 21 -45q49 -37 49 -92v-129h-416z" />
<glyph unicode="L" horiz-adv-x="923" d="M57 0v131q0 81 43 102q27 11 27 39v994q0 30 -19 43q-51 38 -51 94v129h422v-129q0 -55 -49 -92q-20 -16 -20 -45v-996q0 -35 26 -34h152q29 0 47 30q39 78 104 78h127v-264q0 -41 -22.5 -60.5t-38.5 -19.5h-748z" />
<glyph unicode="M" horiz-adv-x="1462" d="M57 1399v133h291q29 0 46 -40t48 -100.5t66 -127t71.5 -133t65.5 -120t49 -87.5l19 -33q22 -30 41 0q27 43 54 90q79 141 139.5 241.5t160.5 268.5q18 41 55 41h242v-133q0 -84 -72 -111v-1022h2q0 -28 19 -43q51 -40 51 -94v-129h-422v129q0 55 49 92q21 17 21 45v594 q0 12 -6 0q-172 -270 -189 -301q-32 -56 -44.5 -76t-35 -28.5t-46.5 -8.5q-60 0 -79 33q-4 6 -15 26.5t-27.5 49.5t-36.5 63q-48 77 -150 250q-2 4 -6 4t-4 -8v-598q0 -29 18 -43q51 -40 51 -94v-129h-420v129q0 57 50 92q17 17 20 41v1026q-41 11 -65 54q-11 22 -11 57z " />
<glyph unicode="N" horiz-adv-x="1120" d="M57 1397v135h285q25 0 43 -24.5t23.5 -42t28 -74t55 -135t70.5 -169t71 -169.5q66 -160 86 -216q4 -8 4 11v551q0 26 -21 39q-49 33 -49 94v135h410v-137q0 -53 -47 -88q-16 -11 -19 -33v-1215q0 -37 -13 -48t-36 -11h-125q-57 0 -80 49q-6 12 -32.5 74.5t-63.5 148.5 t-78 183.5t-75.5 180.5t-59 139t-24.5 59q0 2 -2 -0.5t-2 -14.5v-551q0 -25 20 -38q51 -33 51 -93v-137h-411v139q0 58 47 86q15 15 18 33v1026q-74 22 -74 113z" />
<glyph unicode="O" horiz-adv-x="993" d="M88 313v910q0 158 109.5 243.5t303.5 85.5t299 -86t105 -243v-910q0 -158 -106 -242.5t-297.5 -84.5t-302.5 85t-111 242zM375 332q0 -78 83 -102q23 -7 54 -7t70 24.5t39 86.5v864q0 63 -49 94q-35 23 -72 23q-71 0 -110 -51q-15 -21 -15 -56v-876z" />
<glyph unicode="P" horiz-adv-x="987" d="M57 1413v119h582q126 0 203 -108q63 -90 63 -203v-277q0 -246 -185 -320q-63 -26 -151 -26h-125q-31 0 -30 -25v-309q0 -25 20 -45q49 -37 49 -92v-129h-420v129q0 57 50 92q20 15 20 41v1006q0 16 -1 26.5t-13 18.5q-62 31 -62 102zM414 848q0 -12 7 -23.5t42 -13.5h47 q68 0 92.5 42t24.5 114v209q0 72 -35 94t-80 22h-47q-35 -2 -43 -13t-8 -26v-405z" />
<glyph unicode="Q" horiz-adv-x="995" d="M88 293v952q0 151 116 233q105 74 288 74q286 0 378 -170q31 -59 31 -137v-952q0 -106 -63 -167q-17 -17 -33 -30q-9 -9 6 -16q2 -2 5 -2t12 -4t21.5 -11.5t26.5 -18.5q31 -26 31 -64v-164q-147 0 -261 54q-46 21 -74.5 44t-40 33t-25.5 24.5t-55 14.5t-108 18.5 t-124 55.5q-131 87 -131 233zM369 319q0 -48 45 -75q37 -21 78 -21q30 0 64 17q62 30 62 71v908q0 37 -46 65q-40 25 -80 25q-38 0 -68 -17q-55 -29 -55 -69v-904z" />
<glyph unicode="R" horiz-adv-x="1034" d="M57 -6v110q0 78 27 97q31 25 31 59v979q0 55 -15 63q-43 24 -43 95v129h508q154 0 233 -95.5t79 -246.5v-185q0 -147 -74 -208q-4 -2 -6 -11.5t25 -29.5q57 -43 57 -177v-315q0 -22 20 -38q53 -40 53 -95v-131h-229q-49 0 -89 54q-34 47 -34 97v359q0 95 -72 110 q-18 4 -32 4h-45q-35 -2 -44.5 -8t-9.5 -26v-326q0 -18 17.5 -32.5t30.5 -27.5q22 -22 22 -87v-117h-410zM397 885q0 -20 8.5 -25.5t36.5 -5.5h47q53 0 85 18.5t32 90.5v194q0 72 -19.5 100.5t-84.5 28.5h-84q-20 0 -21 -33v-368z" />
<glyph unicode="S" horiz-adv-x="991" d="M88 291v174h168q55 0 83 -34t28 -81v-41q0 -33 37.5 -57.5t91.5 -24.5q53 0 89 30t36 58v160q0 68 -38 112t-94.5 77.5t-123 64.5t-123.5 75q-131 102 -131 265v172q0 154 117 237q101 72 268 72q161 0 267 -76q114 -83 114 -233v-172h-154q-51 0 -86 30.5t-35 80.5v43 q0 43 -33.5 66.5t-75.5 23.5t-72 -24.5t-30 -55.5v-160q0 -41 38 -74.5t95.5 -67.5t123 -71t122.5 -84q133 -110 133 -250v-235q0 -147 -129 -233q-111 -74 -278 -74q-170 0 -281 74q-127 85 -127 233z" />
<glyph unicode="T" horiz-adv-x="1007" d="M47 1202v246q0 82 80 82h756q43 0 60.5 -14.5t17.5 -67.5v-246h-119q-53 0 -80 49q-10 23 -19.5 31t-44.5 8h-26q-27 0 -27 -35l-4 -991q0 -20 8 -28.5t21 -17.5q41 -30 41 -89v-131h-418v131q0 61 47 90q22 18 22 45v998q0 14 -12 21t-22 7h-21q-42 0 -57.5 -34t-33 -44 t-62.5 -10h-107z" />
<glyph unicode="U" horiz-adv-x="1040" d="M57 1386v146h414v-135q0 -35 -16.5 -63.5t-29.5 -39.5q-24 -19 -24 -45v-884q0 -144 125 -144t125 144v882q0 33 -28 58q-41 26 -41 94v133h401v-148q0 -52 -49 -92q-18 -18 -21 -43v-956q0 -148 -119 -234q-102 -75 -268 -75q-167 0 -275 75q-124 86 -124 234v954 q0 30 -19 42q-51 29 -51 97z" />
<glyph unicode="V" horiz-adv-x="1124" d="M66 1401v131h411v-131q0 -61 -43 -90q-18 -12 -18 -45l151 -969l146 969q0 25 -21 40q-49 36 -49 95v131h416v-131q0 -61 -47 -90q-22 -18 -29 -45l-102 -586q-18 -111 -37 -216.5t-33 -188t-23.5 -134t-9.5 -53.5q-14 -88 -59 -88h-287q-53 0 -67 68l-230 1198 q-6 31 -23 43q-46 33 -46 92z" />
<glyph unicode="W" horiz-adv-x="1712" d="M57 1401v131h416v-131q0 -62 -45 -90q-25 -20 -25 -45l78 -969q68 322 106 504t60.5 287.5t38.5 190.5q33 177 38 194.5t19.5 26.5t34.5 16q43 16 84 16t85 -16.5t48 -36.5q0 -7 27 -143q58 -291 97.5 -503t101.5 -536l88 969q0 25 -21 40q-49 36 -49 95v131h416v-131 q0 -61 -47 -90q-22 -18 -29 -45q-35 -330 -53 -515.5t-28.5 -291t-19 -188.5t-13.5 -133l-5 -50q-9 -88 -59 -88h-301q-51 4 -68 68l-180 868l-180 -868q-12 -68 -68 -68h-305q-51 0 -59 88q0 12 -12.5 141t-21.5 234.5t-20 216.5l-53 586q-7 29 -26 42q-50 34 -50 93z" />
<glyph unicode="X" horiz-adv-x="1036" d="M57 1415v117h193q47 0 76.5 -16.5t46.5 -67.5v-2q0 -2 20.5 -56.5t44.5 -125.5q70 -200 80 -238l111 248q6 26 -4 35q-60 45 -60 92v131h406v-131q0 -61 -43 -92q-20 -10 -31 -41l-9 -20q-9 -21 -24.5 -55t-34 -76t-51.5 -117q-96 -212 -96 -219v-21q0 -4 2 -8l197 -461 q12 -32 61 -45q23 -10 30 -37t7 -72v-137h-164q-51 0 -82 13.5t-53 72.5q0 2 -8 20.5t-19.5 48t-27 66.5t-29.5 74l-82 201l-74 -238q-11 -22 7 -35q49 -38 49 -92v-131h-420v131q0 58 51 90q11 7 25 39l194 477l4 29l-4 29l-192 460q-6 20 -14.5 31.5t-37.5 20.5 q-45 18 -45 108z" />
<glyph unicode="Y" horiz-adv-x="1032" d="M57 1403v131h394v-139q0 -37 -3.5 -55.5t-16.5 -26.5t-23.5 -16.5t-8.5 -19.5t8.5 -32.5t13.5 -53.5t17.5 -71t27 -105.5t46.5 -178.5l4 6q31 115 48 180.5t27.5 103t18.5 68.5t13.5 52.5t8.5 31.5q4 14 -28 33q-22 16 -22 92v131h393v-131q0 -53 -45 -92 q-32 -16 -37 -37q-4 -8 -29.5 -91t-47.5 -149q-64 -197 -154 -491v-277q0 -27 19 -41q50 -37 50 -98v-127h-416v129q0 57 50 92q17 13 20 41v281q-254 737 -256 742q-3 9 -22 23q-50 39 -50 95z" />
<glyph unicode="Z" horiz-adv-x="880" d="M57 53v193q0 24 6 39q123 264 193 412.5t110 234.5t72.5 154.5t52 111.5t22.5 51t-5 17.5t-29 9.5h-139q-45 0 -45 -29v-69h-100q-53 0 -83 31.5t-30 78.5v195q0 49 45 49h618q25 0 40.5 -14.5t15.5 -38.5v-191l-6 -43q-163 -371 -242.5 -549t-109 -245.5t-49 -110.5 t-21.5 -51t2 -22.5t20 -14.5h213q0 41 22.5 71.5t86.5 30.5h106v-303q0 -49 -49 -49h-665q-23 0 -37.5 15.5t-14.5 35.5z" />
<glyph unicode="[" horiz-adv-x="647" d="M57 -283v2110q0 4 6 4h521q6 0 6 -4v-256q0 -6 -6 -6h-234q-6 0 -6 -6v-1588q0 -6 6 -6h234q6 0 6 -6v-242q0 -4 -6 -4h-521q-6 0 -6 4z" />
<glyph unicode="\" horiz-adv-x="643" d="M59 1526q-4 4 4 4h244q8 0 8 -4l289 -1524q0 -4 -4 -4h-235q-6 0 -7 4z" />
<glyph unicode="]" horiz-adv-x="647" d="M57 -41q0 6 6 6h232q6 0 6 6v1588q0 6 -6 6h-232q-6 0 -6 6v256q0 4 6 4h521q6 0 6 -4v-2110q0 -4 -6 -4h-521q-6 0 -6 4v242z" />
<glyph unicode="^" horiz-adv-x="708" d="M106 1276q-4 0 0 4l246 246h4l246 -246v-4l-72 -74h-6l-168 168q-4 4 -4 0l-168 -168h-6z" />
<glyph unicode="_" horiz-adv-x="1087" d="M57 6v195q0 6 6 6h961q6 0 6 -6v-195q0 -6 -6 -6h-961q-6 0 -6 6z" />
<glyph unicode="`" horiz-adv-x="501" d="M88 1348q-6 6 0 6l82 94q-2 2 0 2t6 -2l211 -221q4 0 4 -6l-49 -58q0 -4 -6 0z" />
<glyph unicode="a" horiz-adv-x="911" d="M57 322v26q0 208 217 262q64 15 112 23q73 12 92 22t30 17v67q0 23 -18.5 39.5t-49.5 16.5t-56.5 -12.5t-25.5 -34t-13 -26.5t-44 -5h-221v55q0 109 93 182q103 82 267 82q170 0 266 -87q89 -81 89 -191l-2 -504q0 -26 26 -45h-2q37 -23 37 -109v-100h-240 q-25 0 -40 14.5t-19 30.5q-64 -55 -165 -55t-165.5 26.5t-101.5 72.5q-66 82 -66 233zM342 324q0 -55 30 -80q26 -22 52 -22h6q29 3 64 22q8 8 16 14v242q-10 -4 -18 -8t-19.5 -7.5t-29 -9.5t-37 -13t-34.5 -22q-30 -30 -30 -102v-14z" />
<glyph unicode="b" horiz-adv-x="917" d="M57 -2v149q0 59 47 97q23 14 23 43v979q0 28 -19 42q-51 34 -51 93v131h262q37 0 64 -16.5t27 -81.5v-453q98 51 175 51t127 -25.5t82 -70.5q66 -91 66 -242v-370q0 -153 -97 -244q-94 -88 -249 -88q-61 0 -96 9t-70 36q-13 -39 -67 -39h-224zM410 270q28 -28 64 -28 t70 25.5t34 62.5v338q0 96 -76 104q-8 1 -15 1q-43 0 -65 -30q-8 -8 -12 -18v-455z" />
<glyph unicode="c" horiz-adv-x="854" d="M57 319v386q0 171 110 255q95 74 261 74q152 0 257 -82q110 -86 110 -211v-104h-201q-56 0 -67 8q-15 11 -15 67t-28.5 70.5t-57.5 14.5t-56.5 -15.5t-27.5 -72.5v-398q0 -49 26.5 -63.5t63.5 -14.5t62.5 20.5t25.5 61.5q0 86 101 86h176v-118q0 -145 -107 -223 q-95 -68 -256 -68q-261 0 -346 170q-31 63 -31 157z" />
<glyph unicode="d" horiz-adv-x="921" d="M59 328v370q0 236 152 310q51 24 126.5 24t178.5 -33v287q0 16 -6 16.5t-19 9.5q-45 31 -45 89v131h265q37 0 60.5 -16.5t23.5 -81.5v-1145q0 -31 18 -43q51 -34 51 -96v-150h-219q-55 0 -67 39q-61 -47 -209 -47t-229 89t-81 247zM344 334q0 -53 44 -79q26 -16 55 -16 q12 0 24 3q22 3 34.5 15.5t14.5 18.5v459q-10 6 -23 14.5t-45 14.5q-7 1 -13 1q-26 -1 -55 -19q-36 -24 -36 -76v-336z" />
<glyph unicode="e" horiz-adv-x="860" d="M57 317v375q0 152 110 249q106 93 261 93q156 0 264 -93q111 -96 111 -249v-104q0 -53 -14.5 -79t-79.5 -26h-371v-182q0 -54 68 -65q16 -3 25 -3t26.5 3.5t32.5 10.5q36 16 36 56v2q0 92 123 92h154v-133q0 -128 -117 -204q-107 -70 -268 -70q-157 0 -256 85 q-105 90 -105 242zM338 639h180v68q0 81 -64 93q-16 3 -26 3q-55 0 -80 -45q-10 -19 -10 -51v-68z" />
<glyph unicode="f" horiz-adv-x="626" d="M43 768v139q0 59 35 90t94 31v313q0 126 120 173q58 24 132 24q63 0 137 -18q19 -6 19 -33v-203q0 -18 -7.5 -21t-11.5 -1q-22 8 -41 8q-17 0 -32 -6q-33 -15 -33 -60v-176h125v-108q0 -61 -31 -107.5t-94 -46.5v-490q3 -27 20.5 -37.5t33 -43.5t15.5 -74v-119h-422v119 q0 41 15.5 73.5t28.5 41.5q23 16 26 36v496h-129z" />
<glyph unicode="g" horiz-adv-x="919" d="M57 317v371q0 158 75 250t226 92q105 0 194 -50q19 -11 23 -15q3 27 17 43t29 16h241v-104q0 -39 -16.5 -69t-29.5 -39q-23 -16 -23 -46v-983q0 -147 -119 -241q-110 -87 -268 -87q-144 0 -238 90q-90 86 -90 201v98h192q27 0 45.5 -20.5t18.5 -52.5v-4q0 -66 72 -66 q108 0 108 84v244q-13 -25 -141 -37q-14 -1 -27 -1q-143 0 -213 81q-76 88 -76 245zM336 328q0 -41 38 -70q28 -21 62 -21q13 0 27 3q26 4 39 26q8 10 12 23v450q-37 47 -82 47q-13 0 -26 -4q-43 -12 -61 -48q-9 -17 -9 -36v-370z" />
<glyph unicode="h" horiz-adv-x="1005" d="M57 0v143q0 61 49 95q21 17 21 45v968q0 28 -19 42q-51 34 -51 93v146h297q58 0 58 -47v-506q68 53 166 53t154 -24.5t89 -68.5q60 -80 60 -249v-411q0 -23 20 -43q47 -29 47 -95v-141h-241q-57 0 -76 14q-37 29 -37 113v537q0 57 -44 84q-24 15 -61 15q-10 0 -20 -1 q-29 -7 -57 -35v-446q0 -27 18 -41q49 -38 49 -99v-141h-422z" />
<glyph unicode="i" horiz-adv-x="536" d="M57 0v143q0 65 47 97q20 15 23 34v465q-2 23 -21 35q-49 32 -49 92v158h308q47 0 47 -39v-704q0 -28 18 -41q49 -34 49 -99v-141h-422zM102 1290q0 59 42 102.5t102 43.5q59 0 102 -43t43 -103q0 -59 -43 -101t-102 -42t-101.5 42t-42.5 101z" />
<glyph unicode="j" horiz-adv-x="509" d="M47 872v152h309q25 0 35 -10t10 -39v-1178q0 -139 -81.5 -223t-208.5 -100q-10 -1 -18 -1q-42 0 -42 38v167q0 26 21 39q45 27 45 84v942q-2 25 -23 37q-47 35 -47 92zM102 1290q0 59 42 102.5t102 43.5q59 0 102 -43t43 -103q0 -59 -43 -101t-102 -42t-101.5 42 t-42.5 101z" />
<glyph unicode="k" horiz-adv-x="956" d="M57 1384v148h301q52 0 52 -47v-733l196 223q31 29 48.5 39t47.5 10h150v-117q0 -94 -49 -114q-35 -15 -51 -33l-136 -172l12 -22q13 -23 32.5 -55t42 -71t43 -70.5t34.5 -53.5l13 -23q30 -40 52 -49q54 -24 54 -109v-135h-135q-51 0 -83 14.5t-58 61.5q-4 4 -32 55 t-63 111l-90 155l-28 -28v-95q0 -29 18 -42q43 -31 43 -97v-135h-408v137q0 65 41 96q23 14 23 43v975q0 26 -19 40q-51 34 -51 93z" />
<glyph unicode="l" horiz-adv-x="534" d="M57 0v139q0 59 47 97q20 10 23 32v987q-3 23 -21 36q-49 35 -49 93v150h299q23 0 37.5 -16.5t14.5 -34.5v-371l2 -836q0 -31 18 -43q49 -33 49 -96v-137h-420z" />
<glyph unicode="m" horiz-adv-x="1490" d="M57 0v127q0 73 41 104q10 6 20.5 14.5t10.5 35.5v430q0 54 -27 69q-10 8 -24.5 20.5t-14.5 28.5v195h261q36 0 47 -39q90 47 188 47q155 0 232 -90q42 45 111 67.5t137.5 22.5t131 -19.5t107.5 -65.5q96 -98 96 -318v-359q0 -25 18 -38q42 -29 42 -99v-133h-232 q-49 0 -77.5 29.5t-28.5 85.5v499q0 78 -32 117q-25 31 -65 31q-22 0 -49 -10q-28 -12 -57 -35v-447q0 -26 19 -38q44 -30 44 -99v-133h-280q-60 0 -60 115v514q0 74 -44 109q-30 23 -73 23q-3 -1 -5 -1q-46 -2 -82 -37v-451q0 -28 19 -40q50 -34 50 -99l-2 -133h-422z" />
<glyph unicode="n" horiz-adv-x="989" d="M57 0v135q0 67 47 96q20 12 23 39v432q0 58 -23 78q-47 29 -47 90v154h289q27 0 37 -23q6 -10 6 -22q76 53 169 53t149.5 -26.5t93.5 -73.5q73 -93 73 -256v-404q3 -26 30.5 -43.5t27.5 -95.5v-133h-242q-43 0 -70.5 31.5t-27.5 85.5v532q0 94 -72 101q-10 1 -20 1 q-63 0 -90 -46v-433q0 -25 20 -43q47 -29 47 -96l-2 -133h-418z" />
<glyph unicode="o" horiz-adv-x="858" d="M57 303v420q0 151 111 233q104 76 261 76q75 0 142.5 -20.5t118.5 -59.5q111 -85 111 -211v-469q0 -127 -110 -206q-102 -72 -259 -72q-248 0 -343 173q-32 58 -32 136zM340 315q0 -75 90 -75q92 0 92 77v404q0 57 -64 71q-16 3 -28 3q-54 0 -80 -37q-10 -15 -10 -39 v-404z" />
<glyph unicode="p" horiz-adv-x="923" d="M57 -365q0 59 47 91q23 18 23 45v968q0 28 -19 42q-51 34 -51 98v145h293q28 0 60 -39q8 10 59 28.5t129 18.5q268 0 268 -356v-324q0 -264 -162 -334q-53 -23 -120 -23q-39 0 -84 8q-57 10 -90 22v-261q0 -28 19 -40q50 -34 50 -99v-141h-422v151zM410 270q0 -8 16 -16 t38 -11q7 -1 13 -1l31 5q22 7 38 23q34 31 34 76v332q0 59 -34 84q-29 21 -57 21q-5 0 -9 -1q-54 -7 -70 -30v-482z" />
<glyph unicode="q" horiz-adv-x="925" d="M57 311v359q0 256 152 332q53 26 130 26t133 -19.5t67 -29.5q15 45 55 45h274v-145q0 -65 -47 -95q-22 -18 -22 -45v-970q0 -26 20 -40q49 -36 49 -96v-151h-424v141q0 68 48 96q22 13 22 43v261q-48 -24 -131 -29q-18 -1 -35 -1q-143 0 -213 76q-78 85 -78 242zM344 338 q0 -41 26 -73q18 -24 57 -24q13 0 28 3q39 5 59 41v448q-12 36 -61 45q-18 4 -32 4q-77 0 -77 -96v-348z" />
<glyph unicode="r" horiz-adv-x="765" d="M57 0v143q0 65 47 97q23 14 23 45v469q0 20 -25 34q-45 34 -45 93v143h303q49 0 50 -43v-41q44 50 141 78q37 10 75 10t52 -3t27.5 -11t13.5 -53v-158q0 -46 -42 -46q-12 0 -27 4q-18 4 -42 4q-14 0 -28 -1q-42 -4 -81 -22q-89 -44 -89 -140v-321q0 -30 19 -41 q50 -31 50 -99l-2 -141h-420z" />
<glyph unicode="s" horiz-adv-x="862" d="M57 283v112h160q109 0 109 -98q0 -66 84 -66q51 0 70.5 25t19.5 59q0 35 -32 57.5t-79 44t-103.5 47t-103.5 63.5q-110 89 -110 231q0 116 87 191q98 85 275 85q163 0 263 -83q94 -78 94 -193v-119h-148q-117 0 -117 88q0 68 -94 68q-31 0 -56.5 -15.5t-25.5 -48.5 t34 -53.5t84 -42t109.5 -46t109.5 -61.5q118 -86 118 -221q0 -168 -117 -250q-96 -67 -270 -67t-267.5 80t-93.5 213z" />
<glyph unicode="t" horiz-adv-x="708" d="M57 778v117q0 78 28 105.5t93 27.5v258q0 82 45 124q83 77 234 77h8v-459h143v-106q0 -80 -42 -112t-101 -32v-473q0 -41 38 -61q32 -16 73 -16q9 0 18 1q6 0 16.5 1t19.5 -2q21 -7 21 -42v-104q0 -39 -6 -52.5t-37 -25.5q-65 -14 -124 -14q-92 0 -166 34 q-140 62 -140 222v532h-121z" />
<glyph unicode="u" horiz-adv-x="978" d="M57 872v152h267q31 0 52 -22.5t21 -61.5v-623q0 -35 26 -57t72 -22t64.5 13t18.5 15v471q0 27 -20 41q-40 29 -40 94v152h264q35 0 57.5 -26.5t22.5 -49.5v-653q0 -25 18 -38q42 -29 42 -99v-158h-170q-37 0 -49.5 11.5t-22.5 29.5q-60 -45 -166.5 -45t-173 18.5 t-116.5 57.5q-107 83 -107 233v432q0 27 -19 41q-41 29 -41 94z" />
<glyph unicode="v" horiz-adv-x="913" d="M47 872v152h248q31 0 45 -19.5t17 -41t7.5 -51t12.5 -75.5t16 -104.5t25 -159t43 -276.5l102 647q8 57 23.5 68.5t52.5 11.5h227v-141q0 -70 -41 -97q-13 -8 -17.5 -31.5t-15 -66.5t-24.5 -104.5t-31.5 -134t-34 -144.5t-31 -134t-21.5 -97q-15 -74 -64 -74h-230 q-41 0 -56 21.5t-21.5 47t-14.5 59.5t-20.5 81t-26.5 105.5t-39 157.5t-48 191t-28.5 101.5t-18.5 18.5q-36 25 -36 89z" />
<glyph unicode="w" horiz-adv-x="1394" d="M37 879v143h215q63 0 76 -72q4 -23 12 -63.5t17.5 -93t19.5 -111.5t26.5 -156.5t45.5 -257.5l126 666q10 53 25.5 70.5t50.5 17.5h97q59 0 77 -78q7 -21 19 -94.5t23.5 -134t29 -163.5t49.5 -286q31 174 48 276.5t27.5 162t20 108.5t14.5 83t7 44q8 57 28.5 69.5 t69.5 12.5h197v-135q0 -71 -37 -94q-14 -11 -19.5 -33t-12.5 -61.5t-18 -96.5t-23.5 -125.5t-25.5 -139.5q-31 -159 -47 -235.5t-39.5 -89t-68.5 -12.5h-225q-41 0 -61.5 19.5t-32.5 76.5l-50 336l-49 -336q-12 -53 -33.5 -74.5t-68.5 -21.5h-238q-38 0 -71 45 q-15 22 -24 73.5t-18 99.5q-27 136 -47 247.5t-53 277.5q-8 33 -24 44q-35 24 -35 92z" />
<glyph unicode="x" horiz-adv-x="870" d="M57 0v176q0 47 36 62q11 4 32 41.5t49 84.5l52 86q30 51 29 56.5t-1 8.5q0 2 -8 28l-113 202q-8 20 -40 31.5t-32 71.5v176h207q53 0 86 -82l101 -254q2 2 6 8t21 30q26 36 13 48q-34 31 -34 64v184h342v-184q0 -43 -23 -60q-4 -4 -10 -9t-16 -19l-156 -230q-4 -4 -4 -16 q0 -8 4 -12l135 -216q8 -19 45 -30q35 -14 35 -72v-174h-188q-35 0 -65 30.5t-39 50t-24.5 51.5t-34.5 70q-46 89 -46 95l-4 4q-4 0 -4 -4l-2 -2l-25 -55q-8 -12 0 -18.5t18.5 -13.5t10.5 -32v-176h-353z" />
<glyph unicode="y" d="M47 866v158h215q66 0 78 -78q0 -9 14 -82q18 -101 43 -246t56 -319q114 640 116 657t8.5 33.5t15.5 23.5q14 11 66 11h189v-147q0 -39 -5 -52.5t-21 -33.5q-28 -37 -37 -78t-30.5 -145.5t-47 -230.5t-52 -258t-49.5 -243q-51 -250 -58 -278.5t-41 -52t-67 -23.5h-213v178 q0 29 15.5 47.5t31.5 24.5q39 4 53.5 8t20.5 22l58 238h-95q-33 0 -39 37q-8 35 -23.5 97.5t-31.5 135t-33.5 147.5t-33 138t-24.5 106.5t-11 49.5q-10 51 -31 63q-37 32 -37 92z" />
<glyph unicode="z" horiz-adv-x="827" d="M57 35v198q0 37 33 76q6 8 37 45t72 87.5t88 107.5t87 107q89 109 93 118q8 20 -16 21h-146q-18 0 -18 -39v-45h-144q-35 0 -54 20.5t-19 50.5v191q0 51 45 51h600q37 0 37 -35v-229q0 -10 -5.5 -21.5t-11.5 -21.5t-12 -23q-94 -119 -146.5 -187.5t-83 -107.5t-55.5 -69 q-55 -70 -57 -76t4 -13.5t16 -7.5h142q0 29 17.5 61t49.5 32h160v-279q0 -16 -14.5 -31.5t-30.5 -15.5h-635q-16 0 -24.5 11.5t-8.5 23.5z" />
<glyph unicode="{" horiz-adv-x="841" d="M51 670v207q0 6 4 11t7.5 10t13.5 5h112q43 0 54.5 10.5t13.5 51.5v602q0 266 287 266h245v-266h-215q-31 0 -30 -27v-530q0 -80 -19.5 -142.5t-79.5 -87.5q61 -25 80 -89t19 -154v-539q0 -16 11 -23.5t21 -7.5h213v-254h-245q-133 0 -210 74t-77 180v631q-4 29 -16.5 37 t-46.5 8h-111q-31 0 -31 27z" />
<glyph unicode="|" horiz-adv-x="360" d="M57 -23v1569q0 6 6 6h234q6 0 6 -6v-1569q0 -4 -6 -4h-234q-6 0 -6 4z" />
<glyph unicode="}" horiz-adv-x="841" d="M51 -33h215q31 0 31 27v532q0 80 19.5 142.5t78.5 87.5q-61 25 -79.5 89t-18.5 154v535q0 16 -11.5 23.5t-21.5 7.5h-213v268h246q128 0 209 -79q78 -76 78 -185v-631q4 -29 16 -37t47 -8h111q30 0 30 -27v-207q0 -26 -24 -26h-113q-43 0 -54 -10.5t-13 -51.5v-602 q0 -119 -64.5 -188.5t-222.5 -69.5h-246v256z" />
<glyph unicode="~" horiz-adv-x="663" d="M57 766v82q0 34 20.5 46.5t31 19t23.5 11.5q34 13 81 13t79 -6t58 -12q72 -19 108 -19q56 0 93 17q55 26 55 -7v-92q0 -27 -21.5 -40t-49 -26.5t-85 -13.5t-123 17.5t-114.5 17.5t-74.5 -8t-44.5 -14q-37 -12 -37 14z" />
<glyph unicode="&#xa1;" horiz-adv-x="430" d="M59 49q0 26 5.5 181t9.5 274t7 231.5t5 206.5t5 140t36 46h176q37 0 38 -39.5t4 -130t6 -201t7 -228t8 -217.5q7 -213 7 -246q0 -68 -47 -68h-222q-47 0 -45 51zM80 1325v191q0 32 125 32q96 0 121.5 -11t25.5 -17v-191q0 -29 -147 -29q-45 0 -85 7.5t-40 17.5z" />
<glyph unicode="&#xa2;" horiz-adv-x="825" d="M76 319v386q0 152 99 242q95 87 249 87q146 0 244 -91q96 -90 96 -202v-125h-152q-55 0 -93 17.5t-38 74t-18.5 73t-46.5 16.5q-29 0 -46.5 -15.5t-17.5 -72.5v-383q0 -49 16.5 -71t53.5 -22q67 0 67 76v10q0 47 38 75t91 28h148v-139q0 -131 -96 -212q-94 -79 -246 -79 q-240 0 -322 188q-26 62 -26 139zM365 63h114v-165h-114v165zM367 940v166h114v-166h-114z" />
<glyph unicode="&#xa3;" horiz-adv-x="989" d="M57 207q100 57 157 185q30 65 30 144.5t-17 141.5h-125v119h95q-12 37 -25.5 72.5t-23.5 76.5q-25 96 -25 201q-9 160 77 273q56 75 174 108q60 18 142 18q193 0 293 -97t100 -255v-150h-135q-78 0 -108.5 32t-30.5 98q0 135 -121 135q-89 0 -115 -80q-8 -35 0 -78 q0 -103 57 -260q15 -43 29 -94h172v-119h-151q14 -96 14 -148.5t-10 -89.5t-25.5 -69.5t-31 -63.5t-27.5 -57q82 -8 111.5 -8t49 7t35.5 19q37 31 37 66v33q0 47 28 80.5t83 33.5h162v-194q0 -146 -94 -229q-86 -76 -230 -76l-293 20q-60 0 -110 -20q-51 66 -148 225z" />
<glyph unicode="&#xa5;" horiz-adv-x="1058" d="M47 1403v131h385v-139q0 -37 -3 -55.5t-16 -26.5t-23.5 -16.5t-8.5 -19.5t9 -32.5t16.5 -53.5t22.5 -71q48 -144 93 -284l4 6q39 115 60.5 180.5t35 103t23.5 68.5q22 68 26 81q6 17 -26 36q-22 16 -22 92v131h383v-131q0 -53 -45 -92q-32 -16 -37 -37q-2 -4 -13.5 -37 t-30.5 -85q-47 -133 -92.5 -271t-115.5 -338v-277q0 -27 19 -41q50 -37 50 -98v-127h-415v129q0 57 49 92q17 13 20 41v281q-274 732 -276 739.5t-11.5 16t-19.5 16.5q-41 33 -41 88zM227 440v92q0 4 6 5h592q6 0 6 -5v-92q0 -6 -6 -6h-592q-6 0 -6 6zM227 618v113q0 6 6 6 h592q6 0 6 -6v-113q0 -4 -6 -4h-592q-6 0 -6 4z" />
<glyph unicode="&#xa6;" horiz-adv-x="319" d="M57 -59v731q0 6 6 6h193q6 0 6 -6v-731q0 -6 -6 -7h-193q-6 0 -6 7zM57 836v731q0 6 6 6h193q6 0 6 -6v-731q0 -6 -6 -7h-193q-6 0 -6 7z" />
<glyph unicode="&#xa8;" horiz-adv-x="729" d="M139 1284q0 76 23 76h104q23 0 23 -76t-21 -76h-102q-27 0 -27 76zM442 1284q0 76 21 76h2l102 2q16 0 19.5 -20.5t3.5 -77t-19 -56.5h-106q-23 0 -23 76z" />
<glyph unicode="&#xa9;" horiz-adv-x="1200" d="M57 713q0 225 158 383q159 159 385 159q224 0 383 -159q160 -160 160 -383t-160 -383t-384 -160t-384 160q-158 158 -158 383zM119 713q0 -199 141.5 -340.5t339.5 -141.5q197 0 340 141q141 140 141 341q0 200 -141 339q-143 142 -341 142q-99 0 -186 -38t-153 -104 q-141 -141 -141 -339zM356 575q0 -111 69 -169t173 -58t171 54.5t67 146.5v98h-103q-39 0 -64.5 -19.5t-25.5 -52.5v-8q0 -51 -48 -51t-48 64v266q0 39 12 50t33 11q45 0 45 -51t26.5 -63.5t65.5 -12.5h105v88q0 80 -67 140q-71 63 -172 63t-170 -59.5t-69 -169.5v-267z" />
<glyph unicode="&#xab;" horiz-adv-x="1040" d="M57 612q102 102 203.5 213t218.5 228q4 4 8 0l88 -92q4 -4 0 -9l-294 -336q-8 -4 0 -8l294 -338q2 -2 0 -8l-86 -86q-4 -4 -8 0q-80 80 -134 135.5t-93 95t-64.5 66.5t-45.5 49q-29 32 -87 90zM446 612q36 29 171 176.5t251 264.5q4 4 9 0l88 -92q4 -4 0 -9l-295 -336 q-8 -4 0 -8l295 -338q2 -2 0 -8l-86 -86q-4 -4 -9 0q-80 80 -134 135.5t-93 95t-64.5 66.5t-44.5 49q-68 74 -88 90z" />
<glyph unicode="&#xac;" horiz-adv-x="958" d="M59 506v207q0 6 7 6h817q6 0 6 -6v-207q0 -6 -6 -6h-817q-6 0 -7 6zM672 311v402q0 6 6 6h205q6 0 6 -6v-402q0 -6 -6 -6h-205q-6 0 -6 6z" />
<glyph unicode="&#xad;" horiz-adv-x="501" d="M57 518v195q0 6 4 6h379q4 0 4 -6v-195q0 -6 -4 -6h-379q-4 0 -4 6z" />
<glyph unicode="&#xae;" horiz-adv-x="876" d="M57 996.5q0 158.5 111 269.5q108 112 268 112.5t272 -111.5t111 -270q0 -160 -112.5 -270.5t-268.5 -110.5q-159 0 -270 111t-111 269.5zM119 997q0 -131 94 -225t225 -94q132 0 226 94t94 225q0 132 -94 226q-92 92 -226 92q-133 0 -225 -92q-94 -94 -94 -226zM305 752 v34q0 25 10 31q8 8 9 21v325q0 6 -8.5 11t-8.5 30v41h152q94 0 94 -110v-60q0 -54 -16 -67q-2 0 -3.5 -3.5t9 -9.5t10.5 -19v-140q0 -11 14.5 -21t14.5 -22v-41h-78q-16 0 -24.5 16t-8.5 31v119q0 36 -39 36q-14 0 -17 -2t-3 -10v-106q0 -6 5 -10.5t11 -9.5t6 -28v-36h-129z M412 1038q0 -10 18 -10t30.5 6t12.5 29v63q0 23 -6 32t-29 9h-20q-6 0 -6 -10v-119z" />
<glyph unicode="&#xb0;" horiz-adv-x="483" d="M57 1255v29q4 98 45.5 149.5t139.5 51.5q94 0 142 -61q42 -52 42 -136v-33q-4 -196 -184 -196q-98 0 -138.5 51t-46.5 145zM160 1251q0 -115 82 -114q80 0 80 118v31q0 117 -81 117t-81 -111v-41z" />
<glyph unicode="&#xb1;" horiz-adv-x="722" d="M57 516v195q0 6 6 6h187q6 0 6 6v186q0 6 6 6h195q4 0 4 -6v-186q0 -6 6 -6h188q4 0 4 -6v-195q0 -4 -4 -4h-188q-6 0 -6 -6v-189q0 -4 -4 -4h-195q-6 0 -6 4v189q0 6 -6 6h-187q-6 0 -6 4zM61 6v195q0 6 7 6h591q6 0 7 -6v-195q0 -6 -7 -6h-591q-6 0 -7 6z" />
<glyph unicode="&#xb4;" horiz-adv-x="514" d="M119 1243q-6 0 0 6l213 215q0 6 6 0l80 -92q0 -4 -2 -6l-242 -178q-6 -6 -6 0z" />
<glyph unicode="&#xb8;" horiz-adv-x="342" d="M43 -311q2 12 6 20q2 8 4 16.5t5 23t19.5 19.5t33.5 1l65 -19q8 -2 19.5 4t17.5 34t-27 36l-67 16v160h88v-86q53 -16 75.5 -58t7.5 -98q-32 -122 -138 -98z" />
<glyph unicode="&#xbb;" horiz-adv-x="1077" d="M84 272q-4 4 0 9l295 335q8 4 0 9l-295 338q-2 2 0 8l86 86q4 4 8 0q138 -138 202 -204.5t90 -93t46 -47.5q39 -44 86 -91l-204 -213q-101 -111 -218 -228q-4 -4 -8 0zM473 272q-4 4 0 9l295 335q8 4 0 9l-295 338q-2 2 0 8l86 86q4 4 8 0q259 -259 308 -313 q68 -75 116 -123l-203 -213q-102 -111 -219 -228q-4 -4 -8 0z" />
<glyph unicode="&#xbf;" horiz-adv-x="737" d="M57 332v213q0 78 34 130t75 94t74.5 80t33.5 85v242q0 23 10.5 33t20.5 10h195q39 0 39 -43v-285q0 -68 -35 -115t-76 -87t-76 -75.5t-35 -78.5v-191q0 -61 18.5 -82.5t35.5 -21.5q16 0 34.5 21.5t18.5 84.5v168h119q72 0 104.5 -34t32.5 -77v-71q0 -158 -79.5 -245 t-228 -87t-232 87t-83.5 245zM270 1333v174q0 33 134.5 33t134.5 -29v-176q0 -28 -131 -28q-88 0 -113 10t-25 16z" />
<glyph unicode="&#xc0;" horiz-adv-x="1064" d="M35 0v143q0 58 45 90q25 20 31 46q57 272 90.5 426.5t52.5 242.5t34 158t24.5 113t11.5 52t2 22.5t-10 17.5q-52 23 -52 104v117h318q47 0 74.5 -28.5t30.5 -50t14.5 -76t30.5 -137.5q48 -216 93 -431t115 -530q6 -28 26 -42q50 -34 50 -94v-143h-410v119q0 37 14.5 67.5 t27.5 39.5q28 18 27 39t-3 34.5t-5 27t-6 26.5q-6 24 -40 24h-193q-18 0 -25 -3t-10.5 -18.5t-5.5 -29t-6 -26.5t-5 -30q-2 -27 16 -40t32.5 -44.5t14.5 -68.5v-117h-404zM287 1756q-6 6 0 6l82 94q-2 2 0 2t6 -2l211 -221q4 0 4 -6l-49 -58q0 -4 -6 0zM428 631 q-2 -12 2 -15.5t19 -3.5h149q14 0 18.5 3t2.5 16l-88 508q0 8 -5.5 7t-7.5 -5z" />
<glyph unicode="&#xc1;" horiz-adv-x="1062" d="M41 0v143q0 58 45 90q25 20 31 46q57 272 90.5 426.5t52.5 242.5t34 158t24.5 113t11.5 52t2 22.5t-10 17.5q-52 23 -52 104v117h318q47 0 74.5 -28.5t30.5 -50t14.5 -76t30.5 -137.5q48 -216 93 -431t115 -530q6 -28 26 -42q50 -34 50 -94v-143h-410v119q0 37 14.5 67.5 t27.5 39.5q28 18 27 39t-3 34.5t-5 27t-6 26.5q-6 24 -40 24h-193q-18 0 -25 -3t-10.5 -18.5t-5.5 -29t-6 -26.5t-5 -30q-2 -27 16 -40t32.5 -44.5t14.5 -68.5v-117h-404zM377 1601q-6 0 0 6l213 215q0 6 6 0l80 -92q0 -4 -2 -6l-242 -178q-6 -6 -6 0zM434 631 q-2 -12 2 -15.5t19 -3.5h149q14 0 18.5 3t2.5 16l-88 508q0 8 -5.5 7t-7.5 -5z" />
<glyph unicode="&#xc2;" horiz-adv-x="1081" d="M53 0v143q0 58 45 90q25 20 31 46q57 272 90.5 426.5t52.5 242.5t34 158t24.5 113t11.5 52t2 22.5t-10 17.5q-52 23 -52 104v117h318q47 0 74.5 -28.5t30.5 -50t14.5 -76t30.5 -137.5q48 -216 93 -431t115 -530q6 -28 26 -42q50 -34 50 -94v-143h-410v119q0 37 14.5 67.5 t27.5 39.5q28 18 27 39t-3 34.5t-5 27t-6 26.5q-6 24 -40 24h-193q-18 0 -25 -3t-10.5 -18.5t-5.5 -29t-6 -26.5t-5 -30q-2 -27 16 -40t32.5 -44.5t14.5 -68.5v-117h-404zM283 1618q-6 0 0 6l213 213h6l213 -213q6 -6 0 -6l-53 -51q-2 -2 -4 0l-156 106q-4 2 -6 0l-156 -106 q-4 -4 -4 0zM446 631q-2 -12 2 -15.5t19 -3.5h149q14 0 18.5 3t2.5 16l-88 508q0 8 -5.5 7t-7.5 -5z" />
<glyph unicode="&#xc3;" horiz-adv-x="1034" d="M29 0v143q0 58 45 90q25 20 31 46q57 272 90.5 426.5t52.5 242.5t34 158t24.5 113t11.5 52t2 22.5t-10 17.5q-52 23 -52 104v117h318q47 0 74.5 -28.5t30.5 -50t14.5 -76t30.5 -137.5q48 -216 93 -431t115 -530q6 -28 26 -42q50 -34 50 -94v-143h-410v119q0 37 14.5 67.5 t27.5 39.5q28 18 27 39t-3 34.5t-5 27t-6 26.5q-6 24 -40 24h-193q-18 0 -25 -3t-10.5 -18.5t-5.5 -29t-6 -26.5t-5 -30q-2 -27 16 -40t32.5 -44.5t14.5 -68.5v-117h-404zM268 1598v65q0 29 18 42t37 22.5t60 9.5t65.5 -4t44.5 -11q46 -14 80 -14q54 0 80 14q39 20 39 -4 v-77q0 -23 -15 -34q-44 -32 -96.5 -32t-103.5 14.5t-90 14.5q-44 0 -96 -23q-23 -6 -23 17zM422 631q-2 -12 2 -15.5t19 -3.5h149q14 0 18.5 3t2.5 16l-88 508q0 8 -5.5 7t-7.5 -5z" />
<glyph unicode="&#xc4;" horiz-adv-x="1034" d="M31 0v143q0 58 45 90q25 20 31 46q57 272 90.5 426.5t52.5 242.5t34 158t24.5 113t11.5 52t2 22.5t-10 17.5q-52 23 -52 104v117h318q47 0 74.5 -28.5t30.5 -50t14.5 -76t30.5 -137.5q48 -216 93 -431t115 -530q6 -28 26 -42q50 -34 50 -94v-143h-410v119q0 37 14.5 67.5 t27.5 39.5q28 18 27 39t-3 34.5t-5 27t-6 26.5q-6 24 -40 24h-193q-18 0 -25 -3t-10.5 -18.5t-5.5 -29t-6 -26.5t-5 -30q-2 -27 16 -40t32.5 -44.5t14.5 -68.5v-117h-404zM243 1651q0 76 23 76h104q23 0 23 -76t-21 -76h-102q-27 0 -27 76zM424 631q-2 -12 2 -15.5t19 -3.5 h149q14 0 18.5 3t2.5 16l-88 508q0 8 -5.5 7t-7.5 -5zM546 1651q0 76 21 76h2l102 2q16 0 19.5 -20.5t3.5 -77t-19 -56.5h-106q-23 0 -23 76z" />
<glyph unicode="&#xc5;" horiz-adv-x="1044" d="M47 0v143q0 58 45 90q25 20 31 46q57 272 90.5 426.5t52.5 242.5t34 158t24.5 113t11.5 52t2 22.5t-10 17.5q-52 23 -52 104v117h318q47 0 74.5 -28.5t30.5 -50t14.5 -76t30.5 -137.5q48 -216 93 -431t115 -530q6 -28 26 -42q50 -34 50 -94v-143h-410v119q0 37 14.5 67.5 t27.5 39.5q28 18 27 39t-3 34.5t-5 27t-6 26.5q-6 24 -40 24h-193q-18 0 -25 -3t-10.5 -18.5t-5.5 -29t-6 -26.5t-5 -30q-2 -27 16 -40t32.5 -44.5t14.5 -68.5v-117h-404zM352 1728v21q4 72 33 108.5t102 36.5t103.5 -44t30.5 -97v-25q-4 -141 -135 -141q-70 0 -99.5 37 t-34.5 104zM426 1726q0 -84 59.5 -84t59.5 86v23q0 84 -59 84t-60 -80v-29zM440 631q-2 -12 2 -15.5t19 -3.5h149q14 0 18.5 3t2.5 16l-88 508q0 8 -5.5 7t-7.5 -5z" />
<glyph unicode="&#xc6;" horiz-adv-x="1368" d="M51 0v102q0 55 47 93q22 13 29 43q98 283 153.5 441t87 250.5t56.5 164.5q55 157 56 168q3 30 -25 42q-76 32 -76 109v117h876q25 0 42.5 -18.5t17.5 -34.5v-273h-109q-41 0 -65.5 20.5t-36.5 42.5t-41 21h-123q-10 0 -19.5 -8t-9.5 -20v-320q0 -31 29 -31h217 q33 0 33 -28v-185q0 -29 -31 -28h-219q-29 0 -29 -29v-375q0 -12 10.5 -20t20.5 -8h133q16 0 27 20q10 20 19 30.5t57 10.5h137v-246q0 -23 -21.5 -37t-44.5 -14h-708v96q0 12 4 29q0 69 63 100q16 8 25 31q0 23 1 52.5t-1 44.5t-8.5 19.5t-24.5 4.5h-156q-18 0 -26 -3 t-10 -18q-3 -20 -15 -59t-22 -66q0 -29 18 -45q16 -10 30.5 -52t14.5 -79v-55h-383zM475 610q-2 -12 6 -15t23 -3h102q14 0 21.5 3t6.5 11t-1 47v465q0 8 -5 7t-7 -5z" />
<glyph unicode="&#xc7;" horiz-adv-x="921" d="M70 297v950q0 148 127 233q114 76 279 76t277 -76q124 -84 124 -233v-151h-154q-51 0 -85.5 30.5t-34.5 79.5v2q0 111 -129 111q-68 0 -103 -35q-24 -24 -24 -65v-897q0 -29 36.5 -59t90.5 -30q53 0 92 25t39 57v21q0 47 27.5 81t82.5 34h162v-154q0 -148 -126 -233 q-111 -74 -277 -74q-167 0 -278 74q-126 85 -126 233zM328 -311q2 12 6 20q2 8 4 16.5t5 23t19.5 19.5t33.5 1l65 -19q8 -2 19.5 4t17.5 34t-27 36l-67 16v160h88v-86q53 -16 75.5 -58t7.5 -98q-32 -122 -138 -98z" />
<glyph unicode="&#xc8;" horiz-adv-x="886" d="M57 0v123q0 79 45 102q25 14 25 43v996q0 33 -23 45q-47 24 -47 96v129h734q25 0 42 -18.5t17 -34.5v-271h-121q-41 0 -65.5 20.5t-36.5 42.5t-41 21h-154q-10 0 -19.5 -9t-9.5 -19v-340q0 -29 31 -29h258q33 0 33 -31v-164q0 -29 -31 -28h-260q-31 0 -31 -27v-383 q0 -12 10.5 -20t22.5 -8h164q18 0 25.5 15t13.5 29.5t17 26.5q30 31 67 31h127v-287q0 -23 -22.5 -37t-45.5 -14h-725zM219 1774q-6 6 0 6l82 94q-2 2 0 2t6 -2l211 -221q4 0 4 -6l-49 -58q0 -4 -6 0z" />
<glyph unicode="&#xc9;" horiz-adv-x="886" d="M57 0v123q0 79 45 102q25 14 25 43v996q0 33 -23 45q-47 24 -47 96v129h734q25 0 42 -18.5t17 -34.5v-271h-121q-41 0 -65.5 20.5t-36.5 42.5t-41 21h-154q-10 0 -19.5 -9t-9.5 -19v-340q0 -29 31 -29h258q33 0 33 -31v-164q0 -29 -31 -28h-260q-31 0 -31 -27v-383 q0 -12 10.5 -20t22.5 -8h164q18 0 25.5 15t13.5 29.5t17 26.5q30 31 67 31h127v-287q0 -23 -22.5 -37t-45.5 -14h-725zM324 1622q-6 0 0 6l213 215q0 6 6 0l80 -92q0 -4 -2 -6l-242 -178q-6 -6 -6 0z" />
<glyph unicode="&#xca;" horiz-adv-x="886" d="M57 0v123q0 79 45 102q25 14 25 43v996q0 33 -23 45q-47 24 -47 96v129h734q25 0 42 -18.5t17 -34.5v-271h-121q-41 0 -65.5 20.5t-36.5 42.5t-41 21h-154q-10 0 -19.5 -9t-9.5 -19v-340q0 -29 31 -29h258q33 0 33 -31v-164q0 -29 -31 -28h-260q-31 0 -31 -27v-383 q0 -12 10.5 -20t22.5 -8h164q18 0 25.5 15t13.5 29.5t17 26.5q30 31 67 31h127v-287q0 -23 -22.5 -37t-45.5 -14h-725zM223 1622q-6 0 0 6l213 213h6l213 -213q6 -6 0 -6l-53 -51q-2 -2 -4 0l-156 106q-4 2 -6 0l-156 -106q-4 -4 -4 0z" />
<glyph unicode="&#xcb;" horiz-adv-x="886" d="M57 0v123q0 79 45 102q25 14 25 43v996q0 33 -23 45q-47 24 -47 96v129h734q25 0 42 -18.5t17 -34.5v-271h-121q-41 0 -65.5 20.5t-36.5 42.5t-41 21h-154q-10 0 -19.5 -9t-9.5 -19v-340q0 -29 31 -29h258q33 0 33 -31v-164q0 -29 -31 -28h-260q-31 0 -31 -27v-383 q0 -12 10.5 -20t22.5 -8h164q18 0 25.5 15t13.5 29.5t17 26.5q30 31 67 31h127v-287q0 -23 -22.5 -37t-45.5 -14h-725zM211 1659q0 76 23 76h104q23 0 23 -76t-21 -76h-102q-27 0 -27 76zM514 1659q0 76 21 76h2l102 2q16 0 19.5 -20.5t3.5 -77t-19 -56.5h-106q-23 0 -23 76 z" />
<glyph unicode="&#xcc;" horiz-adv-x="534" d="M57 0v129q0 55 49 92q21 13 21 45v1000q0 30 -19 43q-51 38 -51 94v129h420v-129q0 -55 -49 -92q-20 -20 -20 -45v-1000q0 -30 18 -44q51 -38 51 -93v-129h-420zM80 1770q-6 6 0 6l82 94q-2 2 0 2t6 -2l211 -221q4 0 4 -6l-49 -58q0 -4 -6 0z" />
<glyph unicode="&#xcd;" horiz-adv-x="534" d="M57 0v129q0 55 49 92q21 13 21 45v1000q0 30 -19 43q-51 38 -51 94v129h420v-129q0 -55 -49 -92q-20 -20 -20 -45v-1000q0 -30 18 -44q51 -38 51 -93v-129h-420zM131 1614q-6 0 0 6l213 215q0 6 6 0l80 -92q0 -4 -2 -6l-242 -178q-6 -6 -6 0z" />
<glyph unicode="&#xce;" horiz-adv-x="552" d="M57 0v129q0 55 49 92q21 13 21 45v1000q0 30 -19 43q-51 38 -51 94v129h420v-129q0 -55 -49 -92q-20 -20 -20 -45v-1000q0 -30 18 -44q51 -38 51 -93v-129h-420zM64 1618q-6 0 0 6l213 213h6l213 -213q6 -6 0 -6l-53 -51q-2 -2 -4 0l-156 106q-4 2 -6 0l-156 -106 q-4 -4 -4 0z" />
<glyph unicode="&#xcf;" horiz-adv-x="569" d="M59 1640q0 76 23 76h104q23 0 23 -76t-21 -76h-102q-27 0 -27 76zM92 0v129q0 55 49 92q21 13 21 45v1000q0 30 -19 43q-51 38 -51 94v129h420v-129q0 -55 -49 -92q-20 -20 -20 -45v-1000q0 -30 18 -44q51 -38 51 -93v-129h-420zM362 1640q0 76 21 76h2l102 2 q16 0 19.5 -20.5t3.5 -77t-19 -56.5h-106q-23 0 -23 76z" />
<glyph unicode="&#xd0;" horiz-adv-x="954" d="M51 -2v123q0 81 43 102q25 14 25 43v346h-51q-4 0 -5 6v195q0 6 5 6h51v438q0 33 -34 52t-34 90v131h481q160 0 244 -90t84 -244v-864q0 -154 -84 -244t-244 -90h-481zM397 262q0 -12 4.5 -20.5t30.5 -8.5h56q60 0 86 35q14 17 14 54v837q0 49 -3 75t-19 38 q-20 16 -136 16q-27 0 -30 -13t-3 -26v-430h49q4 0 5 -6v-195q0 -6 -5 -6h-49v-350z" />
<glyph unicode="&#xd1;" horiz-adv-x="1099" d="M57 1397v135h285q25 0 43 -24.5t23.5 -42t28 -74t55 -135t70.5 -169t71 -169.5q66 -160 86 -216q4 -8 4 11v551q0 26 -21 39q-49 33 -49 94v135h410v-137q0 -53 -47 -88q-16 -11 -19 -33v-1215q0 -37 -13 -48t-36 -11h-125q-57 0 -80 49q-6 12 -32.5 74.5t-63.5 148.5 t-78 183.5t-75.5 180.5t-59 139t-24.5 59q0 2 -2 -0.5t-2 -14.5v-551q0 -25 20 -38q51 -33 51 -93v-137h-411v139q0 58 47 86q15 15 18 33v1026q-74 22 -74 113zM311 1618v65q0 29 18 42t37 22.5t60 9.5t65.5 -4t44.5 -11q46 -14 80 -14q54 0 80 14q39 20 39 -4v-77 q0 -23 -15 -34q-44 -32 -96.5 -32t-103.5 14.5t-90 14.5q-44 0 -96 -23q-23 -6 -23 17z" />
<glyph unicode="&#xd2;" horiz-adv-x="972" d="M80 313v910q0 158 109.5 243.5t303.5 85.5t299 -86t105 -243v-910q0 -158 -106 -242.5t-297.5 -84.5t-302.5 85t-111 242zM301 1784q-6 6 0 6l82 94q-2 2 0 2t6 -2l211 -221q4 0 4 -6l-49 -58q0 -4 -6 0zM367 332q0 -78 83 -102q23 -7 54 -7t70 24.5t39 86.5v864 q0 63 -49 94q-35 23 -72 23q-71 0 -110 -51q-15 -21 -15 -56v-876z" />
<glyph unicode="&#xd3;" horiz-adv-x="972" d="M80 313v910q0 158 109.5 243.5t303.5 85.5t299 -86t105 -243v-910q0 -158 -106 -242.5t-297.5 -84.5t-302.5 85t-111 242zM348 1644q-6 0 0 6l213 215q0 6 6 0l80 -92q0 -4 -2 -6l-242 -178q-6 -6 -6 0zM367 332q0 -78 83 -102q23 -7 54 -7t70 24.5t39 86.5v864 q0 63 -49 94q-35 23 -72 23q-71 0 -110 -51q-15 -21 -15 -56v-876z" />
<glyph unicode="&#xd4;" horiz-adv-x="972" d="M80 313v910q0 158 109.5 243.5t303.5 85.5t299 -86t105 -243v-910q0 -158 -106 -242.5t-297.5 -84.5t-302.5 85t-111 242zM273 1632q-6 0 0 6l213 213h6l213 -213q6 -6 0 -6l-53 -51q-2 -2 -4 0l-156 106q-4 2 -6 0l-156 -106q-4 -4 -4 0zM367 332q0 -78 83 -102 q23 -7 54 -7t70 24.5t39 86.5v864q0 63 -49 94q-35 23 -72 23q-71 0 -110 -51q-15 -21 -15 -56v-876z" />
<glyph unicode="&#xd5;" horiz-adv-x="972" d="M80 313v910q0 158 109.5 243.5t303.5 85.5t299 -86t105 -243v-910q0 -158 -106 -242.5t-297.5 -84.5t-302.5 85t-111 242zM287 1637v65q0 29 18 42t37 22.5t60 9.5t65.5 -4t44.5 -11q46 -14 80 -14q54 0 80 14q39 20 39 -4v-77q0 -23 -15 -34q-44 -32 -96.5 -32 t-103.5 14.5t-90 14.5q-44 0 -96 -23q-23 -6 -23 17zM367 332q0 -78 83 -102q23 -7 54 -7t70 24.5t39 86.5v864q0 63 -49 94q-35 23 -72 23q-71 0 -110 -51q-15 -21 -15 -56v-876z" />
<glyph unicode="&#xd6;" horiz-adv-x="972" d="M80 313v910q0 158 109.5 243.5t303.5 85.5t299 -86t105 -243v-910q0 -158 -106 -242.5t-297.5 -84.5t-302.5 85t-111 242zM264 1683q0 76 23 76h104q23 0 23 -76t-21 -76h-102q-27 0 -27 76zM367 332q0 -78 83 -102q23 -7 54 -7t70 24.5t39 86.5v864q0 63 -49 94 q-35 23 -72 23q-71 0 -110 -51q-15 -21 -15 -56v-876zM567 1683q0 76 21 76h2l102 2q16 0 19.5 -20.5t3.5 -77t-19 -56.5h-106q-23 0 -23 76z" />
<glyph unicode="&#xd7;" horiz-adv-x="684" d="M59 473q-4 4 0 8l134 131q4 4 0 9l-134 133q-4 4 0 8l138 137q4 4 8 0l133 -131q4 -8 8 0l133 131q4 4 8 0l138 -137q4 -4 0 -8l-133 -133q-4 -4 0 -9l133 -131q4 -4 0 -8l-138 -137q-4 -8 -8 0l-133 131q-4 4 -8 0l-133 -131q-4 -8 -8 0z" />
<glyph unicode="&#xd8;" horiz-adv-x="962" d="M78 4l661 1526q4 4 9 4h102q4 0 4 -4l-641 -1526q0 -4 -6 -4h-125q-4 0 -4 4zM88 313v910q0 158 109.5 243.5t303.5 85.5t299 -86t105 -243v-910q0 -158 -106 -242.5t-297.5 -84.5t-302.5 85t-111 242zM375 332q0 -78 83 -102q23 -7 54 -7t70 24.5t39 86.5v864 q0 63 -49 94q-35 23 -72 23q-71 0 -110 -51q-15 -21 -15 -56v-876z" />
<glyph unicode="&#xd9;" horiz-adv-x="1060" d="M67 1386v146h414v-135q0 -35 -16.5 -63.5t-29.5 -39.5q-24 -19 -24 -45v-884q0 -144 125 -144t125 144v882q0 33 -28 58q-41 26 -41 94v133h401v-148q0 -52 -49 -92q-18 -18 -21 -43v-956q0 -148 -119 -234q-102 -75 -268 -75q-167 0 -275 75q-124 86 -124 234v954 q0 30 -19 42q-51 29 -51 97zM387 1778q-6 6 0 6l82 94q-2 2 0 2t6 -2l211 -221q4 0 4 -6l-49 -58q0 -4 -6 0z" />
<glyph unicode="&#xda;" horiz-adv-x="1060" d="M67 1386v146h414v-135q0 -35 -16.5 -63.5t-29.5 -39.5q-24 -19 -24 -45v-884q0 -144 125 -144t125 144v882q0 33 -28 58q-41 26 -41 94v133h401v-148q0 -52 -49 -92q-18 -18 -21 -43v-956q0 -148 -119 -234q-102 -75 -268 -75q-167 0 -275 75q-124 86 -124 234v954 q0 30 -19 42q-51 29 -51 97zM398 1626q-6 0 0 6l213 215q0 6 6 0l80 -92q0 -4 -2 -6l-242 -178q-6 -6 -6 0z" />
<glyph unicode="&#xdb;" horiz-adv-x="1060" d="M67 1386v146h414v-135q0 -35 -16.5 -63.5t-29.5 -39.5q-24 -19 -24 -45v-884q0 -144 125 -144t125 144v882q0 33 -28 58q-41 26 -41 94v133h401v-148q0 -52 -49 -92q-18 -18 -21 -43v-956q0 -148 -119 -234q-102 -75 -268 -75q-167 0 -275 75q-124 86 -124 234v954 q0 30 -19 42q-51 29 -51 97zM332 1636q-6 0 0 6l213 213h6l213 -213q6 -6 0 -6l-53 -51q-2 -2 -4 0l-156 106q-4 2 -6 0l-156 -106q-4 -4 -4 0z" />
<glyph unicode="&#xdc;" horiz-adv-x="1060" d="M67 1386v146h414v-135q0 -35 -16.5 -63.5t-29.5 -39.5q-24 -19 -24 -45v-884q0 -144 125 -144t125 144v882q0 33 -28 58q-41 26 -41 94v133h401v-148q0 -52 -49 -92q-18 -18 -21 -43v-956q0 -148 -119 -234q-102 -75 -268 -75q-167 0 -275 75q-124 86 -124 234v954 q0 30 -19 42q-51 29 -51 97zM309 1653q0 76 23 76h104q23 0 23 -76t-21 -76h-102q-27 0 -27 76zM612 1653q0 76 21 76h2l102 2q16 0 19.5 -20.5t3.5 -77t-19 -56.5h-106q-23 0 -23 76z" />
<glyph unicode="&#xdd;" horiz-adv-x="1073" d="M77 1403v131h394v-139q0 -37 -3.5 -55.5t-16.5 -26.5t-23.5 -16.5t-8.5 -19.5t8.5 -32.5t13.5 -53.5t17.5 -71t27 -105.5t46.5 -178.5l4 6q31 115 48 180.5t27.5 103t18.5 68.5t13.5 52.5t8.5 31.5q4 14 -28 33q-22 16 -22 92v131h393v-131q0 -53 -45 -92 q-32 -16 -37 -37q-4 -8 -29.5 -91t-47.5 -149q-64 -197 -154 -491v-277q0 -27 19 -41q50 -37 50 -98v-127h-416v129q0 57 50 92q17 13 20 41v281q-254 737 -256 742q-3 9 -22 23q-50 39 -50 95zM398 1622q-6 0 0 6l213 215q0 6 6 0l80 -92q0 -4 -2 -6l-242 -178q-6 -6 -6 0z " />
<glyph unicode="&#xe0;" d="M57 322v26q0 208 217 262q64 15 112 23q73 12 92 22t30 17v67q0 23 -18.5 39.5t-49.5 16.5t-56.5 -12.5t-25.5 -34t-13 -26.5t-44 -5h-221v55q0 109 93 182q103 82 267 82q170 0 266 -87q89 -81 89 -191l-2 -504q0 -26 26 -45h-2q37 -23 37 -109v-100h-240 q-25 0 -40 14.5t-19 30.5q-64 -55 -165 -55t-165.5 26.5t-101.5 72.5q-66 82 -66 233zM235 1305q-6 6 0 6l82 94q-2 2 0 2t6 -2l211 -221q4 0 4 -6l-49 -58q0 -4 -6 0zM342 324q0 -55 29.5 -80t58.5 -22t64 22q8 8 16 14v242q-10 -4 -18 -8t-19.5 -7.5t-29 -9.5t-37 -13 t-34.5 -22q-30 -30 -30 -102v-14z" />
<glyph unicode="&#xe1;" d="M55 322v26q0 208 217 262q64 15 112 23q73 12 92 22t30 17v67q0 23 -18.5 39.5t-49.5 16.5t-56.5 -12.5t-25.5 -34t-13 -26.5t-44 -5h-221v55q0 109 93 182q103 82 267 82q170 0 266 -87q89 -81 89 -191l-2 -504q0 -26 26 -45h-2q37 -23 37 -109v-100h-240 q-25 0 -40 14.5t-19 30.5q-64 -55 -165 -55t-165.5 26.5t-101.5 72.5q-66 82 -66 233zM283 1120q-6 0 0 6l213 215q0 6 6 0l80 -92q0 -4 -2 -6l-242 -178q-6 -6 -6 0zM340 324q0 -55 29.5 -80t58.5 -22t64 22q8 8 16 14v242q-10 -4 -18 -8t-19.5 -7.5t-29 -9.5t-37 -13 t-34.5 -22q-30 -30 -30 -102v-14z" />
<glyph unicode="&#xe2;" horiz-adv-x="897" d="M59 322v26q0 208 217 262q64 15 112 23q73 12 92 22t30 17v67q0 23 -18.5 39.5t-49.5 16.5t-56.5 -12.5t-25.5 -34t-13 -26.5t-44 -5h-221v55q0 109 93 182q103 82 267 82q170 0 266 -87q89 -81 89 -191l-2 -504q0 -26 26 -45h-2q37 -23 37 -109v-100h-240 q-25 0 -40 14.5t-19 30.5q-64 -55 -165 -55t-165.5 26.5t-101.5 72.5q-66 82 -66 233zM217 1094q-6 0 0 6l213 213h6l213 -213q6 -6 0 -6l-53 -51q-2 -2 -4 0l-156 106q-4 2 -6 0l-156 -106q-4 -4 -4 0zM344 324q0 -55 29.5 -80t58.5 -22t64 22q8 8 16 14v242q-10 -4 -18 -8 t-19.5 -7.5t-29 -9.5t-37 -13t-34.5 -22q-30 -30 -30 -102v-14z" />
<glyph unicode="&#xe3;" horiz-adv-x="903" d="M63 322v26q0 208 217 262q64 15 112 23q73 12 92 22t30 17v67q0 23 -18.5 39.5t-49.5 16.5t-56.5 -12.5t-25.5 -34t-13 -26.5t-44 -5h-221v55q0 109 93 182q103 82 267 82q170 0 266 -87q89 -81 89 -191l-2 -504q0 -26 26 -45h-2q37 -23 37 -109v-100h-240 q-25 0 -40 14.5t-19 30.5q-64 -55 -165 -55t-165.5 26.5t-101.5 72.5q-66 82 -66 233zM233 1112v65q0 29 18 42t37 22.5t60 9.5t65.5 -4t44.5 -11q46 -14 80 -14q54 0 80 14q39 20 39 -4v-77q0 -23 -15 -34q-44 -32 -96.5 -32t-103.5 14.5t-90 14.5q-44 0 -96 -23 q-23 -6 -23 17zM348 324q0 -55 29.5 -80t58.5 -22t64 22q8 8 16 14v242q-10 -4 -18 -8t-19.5 -7.5t-29 -9.5t-37 -13t-34.5 -22q-30 -30 -30 -102v-14z" />
<glyph unicode="&#xe4;" d="M57 322v26q0 208 217 262q64 15 112 23q73 12 92 22t30 17v67q0 23 -18.5 39.5t-49.5 16.5t-56.5 -12.5t-25.5 -34t-13 -26.5t-44 -5h-221v55q0 109 93 182q103 82 267 82q170 0 266 -87q89 -81 89 -191l-2 -504q0 -26 26 -45h-2q37 -23 37 -109v-100h-240 q-25 0 -40 14.5t-19 30.5q-64 -55 -165 -55t-165.5 26.5t-101.5 72.5q-66 82 -66 233zM213 1161q0 76 23 76h104q23 0 23 -76t-21 -76h-102q-27 0 -27 76zM342 324q0 -55 29.5 -80t58.5 -22t64 22q8 8 16 14v242q-10 -4 -18 -8t-19.5 -7.5t-29 -9.5t-37 -13t-34.5 -22 q-30 -30 -30 -102v-14zM516 1161q0 76 21 76h2l102 2q16 0 19.5 -20.5t3.5 -77t-19 -56.5h-106q-23 0 -23 76z" />
<glyph unicode="&#xe5;" d="M59 324v26q0 208 217 262q64 15 112 23q73 12 92 22t30 17v67q0 23 -18.5 39.5t-49.5 16.5t-56.5 -12.5t-25.5 -34t-13 -26.5t-44 -5h-221v55q0 109 93 182q103 82 267 82q170 0 266 -87q89 -81 89 -191l-2 -504q0 -26 26 -45h-2q37 -23 37 -109v-100h-240 q-25 0 -40 14.5t-19 30.5q-64 -55 -165 -55t-165.5 26.5t-101.5 72.5q-66 82 -66 233zM292 1218v21q4 72 33 108.5t102 36.5t103.5 -44t30.5 -97v-25q-4 -141 -135 -141q-70 0 -99.5 37t-34.5 104zM344 326q0 -55 29.5 -80t58.5 -22t64 22q8 8 16 14v242q-10 -4 -18 -8 t-19.5 -7.5t-29 -9.5t-37 -13t-34.5 -22q-30 -30 -30 -102v-14zM366 1216q0 -84 59.5 -84t59.5 86v23q0 84 -59 84t-60 -80v-29z" />
<glyph unicode="&#xe6;" horiz-adv-x="1245" d="M78 303v66q0 166 79 238.5t214 72.5q67 0 98 -27l-2 119q0 45 -48 45t-48 -41q0 -29 -17.5 -53.5t-72.5 -24.5h-187v123q0 102 83 166t260 64t258 -72t81 -231l-2 -488q0 -16 12.5 -34.5t20.5 -24.5h-2q16 -10 29.5 -40t13.5 -69v-100h-76q-47 0 -107.5 29.5t-62.5 37.5 q-19 -45 -150 -70q-36 -7 -102.5 -7t-127 25.5t-92.5 69.5q-52 71 -52 226zM356 332q0 -72 8.5 -99.5t42.5 -27.5t56 20.5t22 55.5v90q0 47 -14 75.5t-60 34.5t-50.5 -35.5t-4.5 -113.5zM498 309v385q0 158 91 250t244 92t243.5 -92t90.5 -250v-131q0 -53 -23.5 -78.5 t-90.5 -25.5h-279v-164q0 -68 60 -68q14 0 35.5 9.5t21.5 37.5v25q0 47 35 81t88 34h153v-158q0 -135 -92 -204.5t-243.5 -69.5t-242.5 85t-91 242zM774 641h111v64q0 76 -13 92q-17 22 -32.5 22t-26 -3t-19.5 -14q-20 -23 -20 -97v-64z" />
<glyph unicode="&#xe7;" horiz-adv-x="845" d="M51 319v386q0 171 110 255q95 74 261 74q152 0 257 -82q110 -86 110 -211v-104h-201q-56 0 -67 8q-15 11 -15 67t-28.5 70.5t-57.5 14.5t-56.5 -15.5t-27.5 -72.5v-398q0 -49 26.5 -63.5t63.5 -14.5t62.5 20.5t25.5 61.5q0 86 101 86h176v-118q0 -145 -107 -223 q-95 -68 -256 -68q-261 0 -346 170q-31 63 -31 157zM289 -311q2 12 6 20q2 8 4 16.5t5 23t19.5 19.5t33.5 1l65 -19q8 -2 19.5 4t17.5 34t-27 36l-67 16v160h88v-86q53 -16 75.5 -58t7.5 -98q-32 -122 -138 -98z" />
<glyph unicode="&#xe8;" horiz-adv-x="847" d="M22 317v375q0 152 110 249q106 93 261 93q156 0 264 -93q111 -96 111 -249v-104q0 -53 -14.5 -79t-79.5 -26h-371v-182q0 -54 68 -65q16 -3 25 -3t26.5 3.5t32.5 10.5q36 16 36 56v2q0 92 123 92h154v-133q0 -128 -117 -204q-107 -70 -268 -70q-157 0 -256 85 q-105 90 -105 242zM268 1266q-6 6 0 6l82 94q-2 2 0 2t6 -2l211 -221q4 0 4 -6l-49 -58q0 -4 -6 0zM303 639h180v68q0 81 -64 93q-16 3 -26 3q-55 0 -80 -45q-10 -19 -10 -51v-68z" />
<glyph unicode="&#xe9;" horiz-adv-x="847" d="M22 317v375q0 152 110 249q106 93 261 93q156 0 264 -93q111 -96 111 -249v-104q0 -53 -14.5 -79t-79.5 -26h-371v-182q0 -54 68 -65q16 -3 25 -3t26.5 3.5t32.5 10.5q36 16 36 56v2q0 92 123 92h154v-133q0 -128 -117 -204q-107 -70 -268 -70q-157 0 -256 85 q-105 90 -105 242zM273 1104q-6 0 0 6l213 215q0 6 6 0l80 -92q0 -4 -2 -6l-242 -178q-6 -6 -6 0zM303 639h180v68q0 81 -64 93q-16 3 -26 3q-55 0 -80 -45q-10 -19 -10 -51v-68z" />
<glyph unicode="&#xea;" horiz-adv-x="921" d="M57 317v375q0 152 110 249q106 93 261 93q156 0 264 -93q111 -96 111 -249v-104q0 -53 -14.5 -79t-79.5 -26h-371v-182q0 -54 68 -65q16 -3 25 -3t26.5 3.5t32.5 10.5q36 16 36 56v2q0 92 123 92h154v-133q0 -128 -117 -204q-107 -70 -268 -70q-157 0 -256 85 q-105 90 -105 242zM246 1104q-6 0 0 6l213 213h6l213 -213q6 -6 0 -6l-53 -51q-2 -2 -4 0l-156 106q-4 2 -6 0l-156 -106q-4 -4 -4 0zM338 639h180v68q0 81 -64 93q-16 3 -26 3q-55 0 -80 -45q-10 -19 -10 -51v-68z" />
<glyph unicode="&#xeb;" horiz-adv-x="921" d="M57 317v375q0 152 110 249q106 93 261 93q156 0 264 -93q111 -96 111 -249v-104q0 -53 -14.5 -79t-79.5 -26h-371v-182q0 -54 68 -65q16 -3 25 -3t26.5 3.5t32.5 10.5q36 16 36 56v2q0 92 123 92h154v-133q0 -128 -117 -204q-107 -70 -268 -70q-157 0 -256 85 q-105 90 -105 242zM231 1161q0 76 23 76h104q23 0 23 -76t-21 -76h-102q-27 0 -27 76zM338 639h180v68q0 81 -64 93q-16 3 -26 3q-55 0 -80 -45q-10 -19 -10 -51v-68zM534 1161q0 76 21 76h2l102 2q16 0 19.5 -20.5t3.5 -77t-19 -56.5h-106q-23 0 -23 76z" />
<glyph unicode="&#xec;" horiz-adv-x="552" d="M74 0h422v141q0 68 -47 97q-21 16 -21 43v704q0 39 -47 39h-307v-158q0 -60 45 -90q23 -14 24 -37v-465q-3 -20 -20 -32q-49 -33 -49 -99v-143zM96 1321q-6 6 0 6l82 94q-2 2 0 2t6 -2l211 -221q4 0 4 -6l-49 -57q0 -4 -6 0z" />
<glyph unicode="&#xed;" horiz-adv-x="552" d="M74 0h422v141q0 68 -47 97q-21 16 -21 43v704q0 39 -47 39h-307v-158q0 -60 45 -90q23 -14 24 -37v-465q-3 -20 -20 -32q-49 -33 -49 -99v-143zM123 1141q-6 0 0 6l213 215q0 6 6 0l80 -92q0 -4 -2 -6l-242 -179q-6 -6 -6 0z" />
<glyph unicode="&#xee;" horiz-adv-x="552" d="M45 1155q-6 0 0 6l213 213h6l213 -213q6 -6 0 -6l-53 -51q-2 -2 -4 0l-156 106q-4 2 -6 0l-156 -106q-4 -4 -4 0zM74 0v143q0 67 47 97q19 14 22 34v465q-2 23 -20 35q-49 33 -49 92v158h307q47 0 47 -39v-704q0 -27 18 -40q50 -35 50 -100v-141h-422z" />
<glyph unicode="&#xef;" horiz-adv-x="552" d="M22.5 1178q0.5 76 22.5 75h105q22 0 22 -75.5t-20 -75.5h-103q-27 0 -26.5 76zM74 0v143q0 67 47 97q19 14 22 34v465q-2 23 -20 35q-49 33 -49 92v158h307q47 0 47 -39v-704q0 -27 18 -40q50 -35 50 -100v-141h-422zM325.5 1178q0.5 76 20.5 75h2l103 2q16 0 19 -20 t3 -76.5t-18 -56.5h-107q-23 0 -22.5 76z" />
<glyph unicode="&#xf1;" horiz-adv-x="980" d="M49 0v135q0 67 47 96q20 12 23 39v432q0 58 -23 78q-47 29 -47 90v154h289q27 0 37 -23q6 -10 6 -22q76 53 169 53t149.5 -26.5t93.5 -73.5q73 -93 73 -256v-404q3 -26 30.5 -43.5t27.5 -95.5v-133h-242q-43 0 -70.5 31.5t-27.5 85.5v532q0 94 -72 101q-78 8 -110 -45 v-433q0 -25 20 -43q47 -29 47 -96l-2 -133h-418zM242 1123v65q0 29 18 42t37 22.5t60 9.5t65.5 -4t44.5 -11q46 -14 80 -14q54 0 80 14q39 20 39 -4v-77q0 -23 -15 -34q-44 -32 -96.5 -32t-103.5 14.5t-90 14.5q-44 0 -96 -23q-23 -6 -23 17z" />
<glyph unicode="&#xf2;" horiz-adv-x="899" d="M84 303v420q0 151 111 233q104 76 261 76q75 0 142.5 -20.5t118.5 -59.5q111 -85 111 -211v-469q0 -127 -110 -206q-102 -72 -259 -72q-248 0 -343 173q-32 58 -32 136zM274 1276q-6 6 0 6l82 94q-2 2 0 2t6 -2l211 -221q4 0 4 -6l-49 -58q0 -4 -6 0zM367 315 q0 -75 90 -75q92 0 92 77v404q0 57 -64 71q-16 3 -28 3q-54 0 -80 -37q-10 -15 -10 -39v-404z" />
<glyph unicode="&#xf3;" horiz-adv-x="899" d="M73 303v420q0 151 111 233q104 76 261 76q75 0 142.5 -20.5t118.5 -59.5q111 -85 111 -211v-469q0 -127 -110 -206q-102 -72 -259 -72q-248 0 -343 173q-32 58 -32 136zM299 1104q-6 0 0 6l213 215q0 6 6 0l80 -92q0 -4 -2 -6l-242 -178q-6 -6 -6 0zM356 315 q0 -75 90 -75q92 0 92 77v404q0 57 -64 71q-16 3 -28 3q-54 0 -80 -37q-10 -15 -10 -39v-404z" />
<glyph unicode="&#xf4;" horiz-adv-x="899" d="M96 303v420q0 151 111 233q104 76 261 76q75 0 142.5 -20.5t118.5 -59.5q111 -85 111 -211v-469q0 -127 -110 -206q-102 -72 -259 -72q-248 0 -343 173q-32 58 -32 136zM246 1108q-6 0 0 6l213 213h6l213 -213q6 -6 0 -6l-53 -51q-2 -2 -4 0l-156 106q-4 2 -6 0 l-156 -106q-4 -4 -4 0zM379 315q0 -75 90 -75q92 0 92 77v404q0 57 -64 71q-16 3 -28 3q-54 0 -80 -37q-10 -15 -10 -39v-404z" />
<glyph unicode="&#xf5;" horiz-adv-x="899" d="M73 303v420q0 151 111 233q104 76 261 76q75 0 142.5 -20.5t118.5 -59.5q111 -85 111 -211v-469q0 -127 -110 -206q-102 -72 -259 -72q-248 0 -343 173q-32 58 -32 136zM250 1112v65q0 29 18 42t37 22.5t60 9.5t65.5 -4t44.5 -11q46 -14 80 -14q54 0 80 14q39 20 39 -4 v-77q0 -23 -15 -34q-44 -32 -96.5 -32t-103.5 14.5t-90 14.5q-44 0 -96 -23q-23 -6 -23 17zM356 315q0 -75 90 -75q92 0 92 77v404q0 57 -64 71q-16 3 -28 3q-54 0 -80 -37q-10 -15 -10 -39v-404z" />
<glyph unicode="&#xf6;" horiz-adv-x="899" d="M69 303v420q0 151 111 233q104 76 261 76q75 0 142.5 -20.5t118.5 -59.5q111 -85 111 -211v-469q0 -127 -110 -206q-102 -72 -259 -72q-248 0 -343 173q-32 58 -32 136zM229 1145q0 76 23 76h104q23 0 23 -76t-21 -76h-102q-27 0 -27 76zM352 315q0 -75 90 -75 q92 0 92 77v404q0 57 -64 71q-16 3 -28 3q-54 0 -80 -37q-10 -15 -10 -39v-404zM532 1145q0 76 21 76h2l102 2q16 0 19.5 -20.5t3.5 -77t-19 -56.5h-106q-23 0 -23 76z" />
<glyph unicode="&#xf7;" horiz-adv-x="866" d="M63 526v180q0 5 8 5h739q5 0 5 -5v-180q0 -5 -5 -5h-739q-8 0 -8 5zM311 240v192q0 31 134.5 31t134.5 -29v-190q0 -16 -42 -25.5t-91 -9.5q-136 0 -136 31zM317 801v190q0 23 38 28t85 5q146 0 146 -29v-190q0 -31 -134.5 -31t-134.5 27z" />
<glyph unicode="&#xf8;" horiz-adv-x="854" d="M78 326v379q0 152 99 242q95 87 249 87q98 0 174 -41l14 27q4 4 9 4h122q4 0 5 -4l-50 -98q76 -85 76 -179v-448q0 -130 -99 -216q-95 -83 -249 -83q-100 0 -178 41l-17 -31q0 -4 -6 -4h-125q-4 0 -4 4l54 107q-74 87 -74 213zM354 510l129 254q-18 33 -49 33 q-80 0 -80 -97v-190zM369 270q17 -28 51.5 -28t56 16t21.5 82v184z" />
<glyph unicode="&#xf9;" horiz-adv-x="964" d="M43 872v152h267q31 0 52 -22.5t21 -61.5v-623q0 -35 26 -57t72 -22t64.5 13t18.5 15v471q0 27 -20 41q-40 29 -40 94v152h264q35 0 57.5 -26.5t22.5 -49.5v-653q0 -25 18 -38q42 -29 42 -99v-158h-170q-37 0 -49.5 11.5t-22.5 29.5q-60 -45 -166.5 -45t-173 18.5 t-116.5 57.5q-107 83 -107 233v432q0 27 -19 41q-41 29 -41 94zM276 1268q-6 6 0 6l82 94q-2 2 0 2t6 -2l211 -221q4 0 4 -6l-49 -58q0 -4 -6 0z" />
<glyph unicode="&#xfa;" horiz-adv-x="964" d="M43 872v152h267q31 0 52 -22.5t21 -61.5v-623q0 -35 26 -57t72 -22t64.5 13t18.5 15v471q0 27 -20 41q-40 29 -40 94v152h264q35 0 57.5 -26.5t22.5 -49.5v-653q0 -25 18 -38q42 -29 42 -99v-158h-170q-37 0 -49.5 11.5t-22.5 29.5q-60 -45 -166.5 -45t-173 18.5 t-116.5 57.5q-107 83 -107 233v432q0 27 -19 41q-41 29 -41 94zM299 1116q-6 0 0 6l213 215q0 6 6 0l80 -92q0 -4 -2 -6l-242 -178q-6 -6 -6 0z" />
<glyph unicode="&#xfb;" horiz-adv-x="964" d="M43 872v152h267q31 0 52 -22.5t21 -61.5v-623q0 -35 26 -57t72 -22t64.5 13t18.5 15v471q0 27 -20 41q-40 29 -40 94v152h264q35 0 57.5 -26.5t22.5 -49.5v-653q0 -25 18 -38q42 -29 42 -99v-158h-170q-37 0 -49.5 11.5t-22.5 29.5q-60 -45 -166.5 -45t-173 18.5 t-116.5 57.5q-107 83 -107 233v432q0 27 -19 41q-41 29 -41 94zM225 1122q-6 0 0 6l213 213h6l213 -213q6 -6 0 -6l-53 -51q-2 -2 -4 0l-156 106q-4 2 -6 0l-156 -106q-4 -4 -4 0z" />
<glyph unicode="&#xfc;" horiz-adv-x="964" d="M43 872v152h267q31 0 52 -22.5t21 -61.5v-623q0 -35 26 -57t72 -22t64.5 13t18.5 15v471q0 27 -20 41q-40 29 -40 94v152h264q35 0 57.5 -26.5t22.5 -49.5v-653q0 -25 18 -38q42 -29 42 -99v-158h-170q-37 0 -49.5 11.5t-22.5 29.5q-60 -45 -166.5 -45t-173 18.5 t-116.5 57.5q-107 83 -107 233v432q0 27 -19 41q-41 29 -41 94zM219 1163q0 76 23 76h104q23 0 23 -76t-21 -76h-102q-27 0 -27 76zM522 1163q0 76 21 76h2l102 2q16 0 19.5 -20.5t3.5 -77t-19 -56.5h-106q-23 0 -23 76z" />
<glyph unicode="&#xfd;" horiz-adv-x="935" d="M55 866v158h215q66 0 78 -78q0 -9 14 -82q18 -101 43 -246t56 -319q114 640 116 657t8.5 33.5t15.5 23.5q14 11 66 11h189v-147q0 -39 -5 -52.5t-21 -33.5q-28 -37 -37 -78t-30.5 -145.5t-47 -230.5t-52 -258t-49.5 -243q-51 -250 -58 -278.5t-41 -52t-67 -23.5h-213v178 q0 29 15.5 47.5t31.5 24.5q39 4 53.5 8t20.5 22l58 238h-95q-33 0 -39 37q-8 35 -23.5 97.5t-31.5 135t-33.5 147.5t-33 138t-24.5 106.5t-11 49.5q-10 51 -31 63q-37 32 -37 92zM330 1106q-6 0 0 6l213 215q0 6 6 0l80 -92q0 -4 -2 -6l-242 -178q-6 -6 -6 0z" />
<glyph unicode="&#xfe;" horiz-adv-x="800" d="M68 -315v1609q0 6 6 6h233q6 0 6 -6v-309q8 10 45 28.5t114 18.5t127 -26.5t80 -73.5q54 -85 54 -256v-365q0 -170 -56 -240q-66 -83 -226 -75q-91 6 -138 29v-340q0 -4 -6 -4h-233q-6 0 -6 4zM313 311q3 -16 20 -30.5t39 -17.5t39 4t27 23q17 24 17 77v270 q0 59 -17.5 83.5t-70.5 18.5q-26 -4 -54 -28v-400z" />
<glyph unicode="&#xff;" horiz-adv-x="935" d="M55 866v158h215q66 0 78 -78q0 -9 14 -82q18 -101 43 -246t56 -319q114 640 116 657t8.5 33.5t15.5 23.5q14 11 66 11h189v-147q0 -39 -5 -52.5t-21 -33.5q-28 -37 -37 -78t-30.5 -145.5t-47 -230.5t-52 -258t-49.5 -243q-51 -250 -58 -278.5t-41 -52t-67 -23.5h-213v178 q0 29 15.5 47.5t31.5 24.5q39 4 53.5 8t20.5 22l58 238h-95q-33 0 -39 37q-8 35 -23.5 97.5t-31.5 135t-33.5 147.5t-33 138t-24.5 106.5t-11 49.5q-10 51 -31 63q-37 32 -37 92zM241 1145q0 76 23 76h104q23 0 23 -76t-21 -76h-102q-27 0 -27 76zM544 1145q0 76 21 76h2 l102 2q16 0 19.5 -20.5t3.5 -77t-19 -56.5h-106q-23 0 -23 76z" />
<glyph unicode="&#x152;" horiz-adv-x="1359" d="M96 311v910q0 158 95.5 243.5t287.5 85.5q78 0 148 -16h577q25 0 42.5 -18.5t17.5 -34.5v-271h-121q-66 0 -101 60q-14 25 -43 24h-112q-10 0 -19.5 -9t-9.5 -19v-320q0 -28 31 -28h217q10 0 21.5 -7.5t11.5 -23.5v-185q0 -29 -31 -28h-219q-31 0 -31 -27v-383 q0 -12 10.5 -20t22.5 -8h123q18 0 25 15t13.5 29.5t17.5 26.5q28 31 67 31h127v-287q0 -23 -22.5 -37t-45.5 -14h-571q-66 -16 -146 -16q-190 0 -286.5 85t-96.5 242zM375 330q0 -59 32.5 -84t73.5 -25t70 24.5t29 86.5v864q0 63 -38 94q-28 23 -63 23q-62 0 -92 -51 q-12 -21 -12 -56v-876z" />
<glyph unicode="&#x153;" horiz-adv-x="1312" d="M475 317v375q0 152 110 249q106 93 261 93q156 0 264 -93q111 -96 111 -249v-104q0 -53 -14.5 -79t-79.5 -26h-371v-182q0 -54 68 -65q16 -3 25 -3t26.5 3.5t32.5 10.5q36 16 36 56v2q0 92 123 92h154v-133q0 -128 -117 -204q-107 -70 -268 -70q-157 0 -256 85 q-105 90 -105 242zM756 639h180v68q0 81 -64 93q-16 3 -26 3q-55 0 -80 -45q-10 -19 -10 -51v-68zM1091 303v420q0 151 111 233q104 76 261 76q75 0 142.5 -20.5t118.5 -59.5q111 -85 111 -211v-469q0 -127 -110 -206q-102 -72 -259 -72q-248 0 -343 173q-32 58 -32 136z M1374 315q0 -75 90 -75q92 0 92 77v404q0 57 -64 71q-16 3 -28 3q-54 0 -80 -37q-10 -15 -10 -39v-404z" />
<glyph unicode="&#x178;" horiz-adv-x="1058" d="M69 1403v131h394v-139q0 -37 -3.5 -55.5t-16.5 -26.5t-23.5 -16.5t-8.5 -19.5t8.5 -32.5t13.5 -53.5t17.5 -71t27 -105.5t46.5 -178.5l4 6q31 115 48 180.5t27.5 103t18.5 68.5t13.5 52.5t8.5 31.5q4 14 -28 33q-22 16 -22 92v131h393v-131q0 -53 -45 -92 q-32 -16 -37 -37q-4 -8 -29.5 -91t-47.5 -149q-64 -197 -154 -491v-277q0 -27 19 -41q50 -37 50 -98v-127h-416v129q0 57 50 92q17 13 20 41v281q-254 737 -256 742q-3 9 -22 23q-50 39 -50 95zM309 1659q0 76 23 76h104q23 0 23 -76t-21 -76h-102q-27 0 -27 76zM612 1659 q0 76 21 76h2l102 2q16 0 19.5 -20.5t3.5 -77t-19 -56.5h-106q-23 0 -23 76z" />
<glyph unicode="&#x2c6;" horiz-adv-x="589" d="M80 1276q-6 0 0 6l213 213h6l213 -213q6 -6 0 -6l-53 -51q-2 -2 -4 0l-156 106q-4 2 -6 0l-156 -106q-4 -4 -4 0z" />
<glyph unicode="&#x2dc;" horiz-adv-x="837" d="M213 1262v65q0 29 18 42t37 22.5t60 9.5t65.5 -4t44.5 -11q46 -14 80 -14q54 0 80 14q39 20 39 -4v-77q0 -23 -15 -34q-44 -32 -96.5 -32t-103.5 14.5t-90 14.5q-44 0 -96 -23q-23 -6 -23 17z" />
<glyph unicode="&#x2000;" horiz-adv-x="947" />
<glyph unicode="&#x2001;" horiz-adv-x="1894" />
<glyph unicode="&#x2002;" horiz-adv-x="947" />
<glyph unicode="&#x2003;" horiz-adv-x="1894" />
<glyph unicode="&#x2004;" horiz-adv-x="631" />
<glyph unicode="&#x2005;" horiz-adv-x="473" />
<glyph unicode="&#x2006;" horiz-adv-x="315" />
<glyph unicode="&#x2007;" horiz-adv-x="315" />
<glyph unicode="&#x2008;" horiz-adv-x="236" />
<glyph unicode="&#x2009;" horiz-adv-x="378" />
<glyph unicode="&#x200a;" horiz-adv-x="105" />
<glyph unicode="&#x2010;" horiz-adv-x="501" d="M57 518v195q0 6 4 6h379q4 0 4 -6v-195q0 -6 -4 -6h-379q-4 0 -4 6z" />
<glyph unicode="&#x2011;" horiz-adv-x="501" d="M57 518v195q0 6 4 6h379q4 0 4 -6v-195q0 -6 -4 -6h-379q-4 0 -4 6z" />
<glyph unicode="&#x2012;" horiz-adv-x="501" d="M57 518v195q0 6 4 6h379q4 0 4 -6v-195q0 -6 -4 -6h-379q-4 0 -4 6z" />
<glyph unicode="&#x2013;" horiz-adv-x="716" d="M57 514v195q0 6 6 6h592q4 0 4 -6v-195q0 -6 -4 -6h-592q-6 0 -6 6z" />
<glyph unicode="&#x2014;" horiz-adv-x="1083" d="M57 512v195q0 6 6 6h957q6 0 6 -6v-195q0 -6 -6 -6h-957q-6 0 -6 6z" />
<glyph unicode="&#x2018;" horiz-adv-x="366" d="M57 1100v227q0 65 15 94q23 42 62.5 81.5t46.5 36.5t21.5 -14t13.5 -18.5t-26.5 -33t-35 -55t-2.5 -52.5q16 -49 69 -49q88 0 88 -29v-186q0 -31 -129 -31q-123 0 -123 29z" />
<glyph unicode="&#x2019;" horiz-adv-x="366" d="M57 1337v187q0 28 129 28q123 0 123 -26v-228q0 -65 -15 -95q-21 -41 -61 -80t-47.5 -36t-21.5 14t-13 18t26.5 33t37.5 55.5t9 52.5q-7 49 -58 49q-109 0 -109 28z" />
<glyph unicode="&#x201a;" horiz-adv-x="366" d="M57 1337v187q0 28 129 28q123 0 123 -26v-228q0 -65 -15 -95q-21 -41 -61 -80t-47.5 -36t-21.5 14t-13 18t26.5 33t37.5 55.5t9 52.5q-7 49 -58 49q-109 0 -109 28z" />
<glyph unicode="&#x201c;" horiz-adv-x="684" d="M57 1102v227q0 67 17 95q24 42 63 81t46 36t21.5 -14t13.5 -18.5t-27.5 -33t-35 -55t-1.5 -52.5q17 -49 69 -49q88 0 88 -29v-186q0 -31 -129 -31q-125 0 -125 29zM375 1102v227q0 68 15 95q25 44 63 82t45.5 35t21.5 -14t13 -18.5t-26.5 -33t-34.5 -55t-2 -52.5 q15 -49 69 -49q88 0 88 -29v-186q0 -31 -129 -31q-123 0 -123 29z" />
<glyph unicode="&#x201d;" horiz-adv-x="684" d="M57 1337v187q0 30 129 30q125 0 125 -28v-228q0 -66 -15 -94q-24 -45 -85 -104q-18 -16 -24.5 -13t-20.5 15t-13 18t26.5 32t33.5 55.5t1 52.5q-15 49 -69 49q-88 0 -88 28zM375 1337v187q0 30 126 30t126 -28v-228q0 -64 -15 -93q-25 -46 -64.5 -83.5t-45.5 -34.5 t-20.5 15t-13.5 18t26.5 32t35 55.5t0.5 52.5q-18 49 -69 49q-86 0 -86 28z" />
<glyph unicode="&#x201e;" horiz-adv-x="684" d="M57 16v187q0 30 129 30q125 0 125 -28v-228q0 -66 -15 -94q-22 -41 -85 -104q-18 -16 -24.5 -13t-20.5 15t-13 18t26.5 32t33.5 55.5t1 51.5q-15 50 -69 50q-88 0 -88 28zM375 16v187q0 30 126 30t126 -28v-228q0 -64 -15 -93q-23 -42 -86 -105q-18 -16 -24 -13t-20.5 15 t-13.5 18t26.5 32t35 55.5t0.5 51.5q-18 50 -69 50q-86 0 -86 28z" />
<glyph unicode="&#x2022;" horiz-adv-x="477" d="M57 690v273q0 18 44 23q79 9 126 9q97 0 134.5 -11t37.5 -17v-275q0 -23 -117 -32q-30 -3 -55 -3q-97 0 -133.5 12.5t-36.5 20.5z" />
<glyph unicode="&#x2026;" horiz-adv-x="952" d="M57 0v150q0 32 109.5 32t109.5 -28v-150q0 -35 -110 -35q-109 0 -109 31zM371 0v150q0 32 109.5 32t109.5 -28v-150q0 -35 -111 -35q-108 0 -108 31zM676 0v150q0 32 109.5 32t109.5 -28v-150q0 -35 -111 -35q-108 0 -108 31z" />
<glyph unicode="&#x202f;" horiz-adv-x="378" />
<glyph unicode="&#x2039;" horiz-adv-x="659" d="M57 612q102 102 203.5 204t218.5 218q4 4 8 0l95 -94q4 -4 0 -8l-316 -316q-8 -4 0 -8l316 -317q2 -2 0 -8l-95 -93q-4 -4 -8 0z" />
<glyph unicode="&#x203a;" horiz-adv-x="669" d="M80 295q-4 4 0 8l266 307q4 4 0 8l-266 310q-2 2 0 8l102 102q4 4 8 0l418 -420q2 -2 4 -2v-4l-4 -2l-418 -417q-4 -4 -8 0z" />
<glyph unicode="&#x205f;" horiz-adv-x="473" />
<glyph unicode="&#x20ac;" horiz-adv-x="1005" d="M57 614v125h144v76h-144v125h144v283q0 150 113 242q104 85 261 85q158 0 263 -85q110 -90 110 -242v-174h-164q-51 0 -85.5 31.5t-34.5 80.5v84q0 68 -95 68q-43 0 -66.5 -21.5t-23.5 -77.5v-274h183v-125h-183v-76h183v-125h-183v-276q0 -67 47 -98q17 -11 43 -11 q101 0 101 103v39q0 47 27.5 80.5t82.5 33.5h168v-172q0 -152 -110 -242q-107 -87 -263 -87q-155 0 -261 87q-113 92 -113 242v301h-144z" />
<glyph unicode="&#x2122;" horiz-adv-x="1138" d="M78 1155v96q0 52 47 52h313q43 0 43 -56v-92h-53q-12 0 -24.5 9.5t-12.5 20.5t-10 11h-27q-14 0 -14 -16v-445q0 -10 4 -13t9 -7q18 -14 18 -39v-60h-185v60q0 28 23 39q10 10 10 20v447q0 14 -14 14h-27t-10 -8q0 -33 -49 -33h-41zM504 1243v60h117q13 0 22.5 -23 t32 -69t44 -92t38.5 -79l16 -34q8 -12 19 0l69 139q31 61 53.5 106t28.5 48.5t14 3.5h103v-60q0 -39 -31 -49v-459q0 -10 8 -17q23 -20 23 -44v-58h-184v58q0 26 22 41q10 10 10 20v266q0 8 -4 0q-25 -47 -43 -81q-41 -79 -53 -97q-8 -16 -25.5 -16t-23.5 10 q-25 41 -49 90.5t-35.5 75t-14 25.5t-2.5 -4v-269q0 -11 9 -20q22 -11 22 -41v-58h-184v58q0 26 22 41q9 9 11 18v461q-35 7 -35 49z" />
<glyph unicode="&#xe000;" horiz-adv-x="1024" d="M0 0v1024h1024v-1024h-1024z" />
</font>
</defs>
</svg>
